<svg xmlns="http://www.w3.org/2000/svg" xmlns:xlink="http://www.w3.org/1999/xlink" viewBox="0 0 685.41 418.44" xmlns:v="https://vecta.io/nano"><style><![CDATA[.W{fill:#39393b}.X{fill:#fff}.Y{fill:#ea9b7a}.Z{fill:#ced3e6}.a{fill:#21b573}.b{fill:#d46a43}.c{fill:#217c58}.d{opacity:.8}.e{fill:#df615c}.f{fill:#585859}.g{fill:#084fc7}.h{fill:#a92f4b}.i{fill:#c77e2e}.j{fill:#0875f7}.k{fill:#ebb12b}.l{fill:#faaf3a}]]></style><g class="Z d"><path d="M354.45 123.54a145.87 145.87 0 0 1-66.5-28.18c-29.38-22.17-90.85-59.9-149.49-41.11-80.89 25.92-81.25 100.91-60.18 141.64s170.47 160 364.16 141c173.33-17 207.1-211.39 114.66-246.57-80.17-30.48-107.53 47.27-202.65 33.22z" opacity=".5"/><ellipse cx="603.98" cy="94.77" rx="7.52" ry="8.09" opacity=".5"/><path d="M113.3 41.48a4.89 4.89 0 0 1 5.46 3c1.38 3.76-2.25 8-7.13 6.08h0c-4.21-3.07-2.37-8.33 1.67-9.08z"/><circle cx="607.58" cy="67.72" r="9.79" transform="matrix(.707107 -.707107 .707107 .707107 105.96 404.21)"/><path d="M142.98 33.75a9.89 9.89 0 0 1-14.367 11.295A9.89 9.89 0 0 1 130.79 26.9a9.88 9.88 0 0 1 12.19 6.85z" class="d"/><path d="M534.29 328.41a4.87 4.87 0 0 1 5.92 2c2.06 3.43-.72 8.24-5.87 7.29h0c-4.71-2.3-3.89-7.81-.05-9.29zm27.72-13.11a9.89 9.89 0 1 1-13.25-4.46 9.89 9.89 0 0 1 13.25 4.46zm9.03-307.82a6 6 0 1 1-12 0 6 6 0 1 1 12 0z"/></g><g class="Z"><path d="M587.08 116.59c0-53.8-44.81-112.76-100.56-116.32l-3-.17c-79.93-3.72-86 93.77-158.34 104.76S197.63 60.35 111.1 96.57c-77.69 32.52-98.74 215.29 129.61 222.62 182.7 5.86 346.39-42.07 346.37-202.6z" class="d"/><ellipse cx="366.55" cy="375.66" rx="183.75" ry="9.48"/></g><g class="X"><path d="M258.13 349.12h212A15.92 15.92 0 0 1 486.05 365v10.56a0 0 0 0 1 0 0H242.21a0 0 0 0 1 0 0V365a15.92 15.92 0 0 1 15.92-15.88z"/><path d="M319.25 292.38h88.39v56.74h-88.39z"/></g><path d="M319.25 309.8l88.39-7.07.01-10.35-88.39.1-.01 17.32z" class="Z"/><path d="M552.56 58.06v222.52c0 6.522-5.288 11.81-11.81 11.81H178.37a11.81 11.81 0 0 1-11.81-11.81V58.06a11.81 11.81 0 0 1 11.81-11.81h362.9.39 0 .28.45.3.14l.29.06a11.81 11.81 0 0 1 9.44 11.75z" class="X"/><circle cx="387.51" cy="321.66" r="8.16" transform="matrix(.757223 -.653156 .653156 .757223 -140.13 285.93)" class="Z"/><path d="M543.13 46.49l-.29-.06h-.14-.3-.45-.28 0-.39-362.91a11.81 11.81 0 0 0-11.81 11.81v205.89h386V58.06a11.81 11.81 0 0 0-9.43-11.57zm-5.88 197.05a3.22 3.22 0 0 1-3.21 3.22h-349a3.22 3.22 0 0 1-3.21-3.22V64.75a3.21 3.21 0 0 1 3.21-3.21h349a3.21 3.21 0 0 1 3.21 3.21z" class="W"/><rect x="181.87" y="61.56" width="355.38" height="185.2" rx="3.21" class="Z"/><path d="M537.25 64.75v16.87H181.88V64.75a3.21 3.21 0 0 1 3.21-3.21h349a3.21 3.21 0 0 1 3.16 3.21z" class="X"/><path d="M509.72 71.33a2.73 2.73 0 1 1-5.46 0 2.73 2.73 0 0 1 4.66-1.93 2.73 2.73 0 0 1 .8 1.93z" class="e"/><path d="M518.57 71.33a2.73 2.73 0 1 1-5.46 0 2.73 2.73 0 0 1 4.66-1.93 2.73 2.73 0 0 1 .8 1.93z" class="a"/><rect x="212.9" y="68.44" width="282.72" height="5.77" rx="2.43" fill="#d2dcec"/><path d="M194.7 71.33V74a.49.49 0 0 1-.74.43l-2.31-1.34-2.31-1.34a.49.49 0 0 1 0-.85l2.31-1.34 2.31-1.34a.5.5 0 0 1 .74.43zm4.07 0V74a.49.49 0 0 0 .73.43l2.32-1.34 2.31-1.33a.49.49 0 0 0 0-.85l-2.31-1.34-2.32-1.34a.49.49 0 0 0-.73.43z"/><g class="W"><rect x="545.34" y="115.71" width="6.55" height="1.54" rx=".65" transform="matrix(.707107 -.707107 .707107 .707107 54.19 376.78)"/><rect x="547.85" y="113.21" width="1.54" height="6.55" rx=".65" transform="matrix(.707107 -.707107 .707107 .707107 54.21 376.82)"/></g><rect x="222.04" y="85.71" width="274.09" height="153.85" rx="6.42" class="X"/><g class="Z"><rect x="231.19" y="160" width="69.48" height="39" rx="3.01"/><rect x="416.17" y="94.87" width="69.48" height="39" rx="3.01"/><rect x="231.09" y="128" width="69.58" height="3.34" rx="1.6"/><rect x="231.09" y="113.88" width="69.58" height="3.34" rx="1.6"/><rect x="231.09" y="142.12" width="69.58" height="3.34" rx="1.6"/><rect x="416.17" y="161.09" width="69.48" height="3.34" rx="1.6"/><rect x="416.17" y="146.97" width="69.48" height="3.34" rx="1.6"/><rect x="416.17" y="175.22" width="69.48" height="3.34" rx="1.6"/></g><path d="M222.04 215.67h274.09v22.47a1.42 1.42 0 0 1-1.43 1.42H223.46a1.42 1.42 0 0 1-1.42-1.42z" class="W"/><path d="M476.47 224.53v-2h2.54v-1.78h-3.44a.9.9 0 0 0-.9.9v2.93zm0 3.6h-1.8v3.08a.9.9 0 0 0 .9.9h3.44v-1.8h-2.54zm7.81-3.6h1.81v-2.93a.9.9 0 0 0-.9-.9h-3.31v1.8h2.4zm0 3.6v2.18h-2.4v1.8h3.31a.9.9 0 0 0 .9-.9v-3.08z" class="X"/><path d="M222.04 211.18h274.09v4.49H222.04z" class="Z"/><path d="M241.95 90.41h3.09v6.77h4.14v2.4h-7.23zm8.08 0h3.1v9.17h-3.1zm14.39 0l-3.88 9.17h-3l-3.88-9.17h3.33l2.19 5.35 2.24-5.35zm7.93 6.83v2.34h-7.63v-9.17h7.46v2.34h-4.42v1.07h3.88v2.23h-3.88v1.2z" class="W"/><path d="M236.88 94.92a3.77 3.77 0 1 1-3.77-3.77 3.77 3.77 0 0 1 3.77 3.77zm223.53 101.03a3.31 3.31 0 1 1-.966-2.347 3.31 3.31 0 0 1 .966 2.347zm2.88 8.38h-12.41a6.39 6.39 0 0 1 6.09-3.94h.19a6.41 6.41 0 0 1 6.13 3.94z" class="e"/><path d="M474.71 193.94v2.08l-3.33 7.95h-3.7l3.18-7.41h-1.93v1.46h-2.8v-4.08zm8.8 7.41v2.62h-8v-2.08l3.63-3.35c.69-.64.79-1 .79-1.37s-.33-.79-1-.79a1.64 1.64 0 0 0-1.47.93l-2.58-1.28a4.6 4.6 0 0 1 4.34-2.32c2.37 0 4 1.23 4 3.14 0 1-.26 1.88-1.72 3.2l-1.43 1.3z" class="W"/><path d="M433.62 122.68s2.46 7.95 8.65 8.57c5 .5 8.91-4.78 10.23-6.83.32-.49.49-.8.49-.8a8.39 8.39 0 0 0 .9-.09c1.25-.19 3.46-.76 4.12-2.44.94-2.38-3.82-3.25-3.82-3.25s2.05-2.41 1.25-3.85-4-1.28-4-1.28 3.07-2.66 1.67-4.41c-2.09-2.63-5.14 1-5.39 1.22.18-.28 8-12.22 5.53-12.7-2.18-.42-9.4 9.22-11.34 11.86l-.47.66-.41-.21c-1.24-.6-5-2.13-6.93 0-2.32 2.62-.48 13.55-.48 13.55z" class="Y"/><g class="b"><path d="M448.88 119.29a5.14 5.14 0 0 0-1.9 2.57 1.5 1.5 0 0 0 .39 1.42 3.05 3.05 0 0 0 1.14.61 15.67 15.67 0 0 0 4 .53l.48-.8a8.43 8.43 0 0 0 .91-.09.48.48 0 0 0-.26-.07c-1.79 0-4.89-.15-5.59-.86a.55.55 0 0 1-.13-.55c.2-1 1.74-2.4 3.17-3a.47.47 0 1 0-.25-.91c-1.17.18-4.43.43-5.45-.6-.15-.15-.13-.24-.12-.29a1.69 1.69 0 0 1 .63-.76 11.88 11.88 0 0 1 2.67-1.45.48.48 0 0 0 .012-.887.48.48 0 0 0-.372-.003 12.52 12.52 0 0 0-2.68 1.42 4 4 0 0 0-.91.87 1.55 1.55 0 0 0-.29.61 1.24 1.24 0 0 0 .38 1.17c.89.94 2.71 1.11 4.17 1.07z"/><path d="M444.23 112.32a.48.48 0 0 1 .11.53 3.1 3.1 0 0 0-.31 1.51.57.57 0 0 0 .31.48 1.81 1.81 0 0 0 .83.1 14.1 14.1 0 0 0 3.26-.7.44.44 0 0 1-.22.18 11.49 11.49 0 0 0-2.67 1.45h-.33a4 4 0 0 1-.95-.07l-.33-.11a1.51 1.51 0 0 1-.85-1.21 4 4 0 0 1 .38-2 .47.47 0 0 1 .76-.16z"/><path d="M435.65 113.92a15.43 15.43 0 0 0 3.41 1.66 5.35 5.35 0 0 0 2.84.28 2.42 2.42 0 0 0 1.59-1.21c1.22-2.24-.44-4.7-1.54-6l-.47.66-.41-.21c.94 1 2.57 3.24 1.58 5.05a1.47 1.47 0 0 1-1 .75c-1.65.41-4.52-1.17-5.49-1.81a.49.49 0 0 0-.67.14.48.48 0 0 0 .16.69zm4.91 12.88a.48.48 0 0 0 .51-.77 4.28 4.28 0 0 1-1.22-3.46c.36-3.16 4.14-5.83 4.18-5.86a.49.49 0 0 0 .12-.67.48.48 0 0 0-.67-.11c-.17.11-4.17 2.95-4.59 6.53a5.28 5.28 0 0 0 1.46 4.21.46.46 0 0 0 .21.13z"/></g><path d="M380.76 87.43l4.87 12.32 2.22 6.17 2.24 6.12 2.3 6 2.37 5.87 2.42 5.45 1.14 2.2.23.4.1.16a.12.12 0 0 1 0 .07.55.55 0 0 1 0 .18v.2c0 .08.15.18.41.3a7.62 7.62 0 0 0 3 .32 23.74 23.74 0 0 0 4.73-.77 50.37 50.37 0 0 0 5.34-1.7 98.44 98.44 0 0 0 11.05-5.08c3.69-2 6.4-3.52 10-5.77a16.05 16.05 0 0 0 10.36 11.67 130.35 130.35 0 0 1-11 8.94 101.64 101.64 0 0 1-12.4 7.77 63.3 63.3 0 0 1-7.1 3.21 45.54 45.54 0 0 1-8.26 2.31 31.94 31.94 0 0 1-4.85.46 26.35 26.35 0 0 1-5.47-.46 23.16 23.16 0 0 1-5.87-2 22.61 22.61 0 0 1-5.37-3.72 23.68 23.68 0 0 1-2.17-2.33l-.47-.6-.39-.52-.36-.5-.33-.49c-.87-1.28-1.57-2.44-2.23-3.57-1.31-2.26-2.42-4.41-3.5-6.55s-2-4.26-3-6.38-1.9-4.22-2.78-6.34l-2.63-6.33-2.49-6.36-2.38-6.38-1.15-3.21-.46-1.54-.56-1.65z" class="a"/><g class="c"><path d="M394.02 138.69a.63.63 0 0 0 .49-.25 26.22 26.22 0 0 1 4.41-4.6c.276-.196.341-.579.145-.855s-.579-.341-.855-.145a27 27 0 0 0-4.68 4.86.61.61 0 0 0 .12.86.58.58 0 0 0 .37.13z"/><path d="M398.2 139.3h.13a.63.63 0 0 0 .47-.74 11 11 0 0 1 0-4.61.62.62 0 0 0-1.19-.34 12.4 12.4 0 0 0 0 5.22.6.6 0 0 0 .59.47z"/></g><path d="M392.49 204.96c-11.38 6.56-38.89 9.93-56.83 2.8-6.59-2.61-7.74-4.22-7.24-16l.06-1.32c0-.93.11-1.85.17-2.78 0-.44.07-.89.11-1.33a133.63 133.63 0 0 1 .47-4.82c0-.43.09-.85.14-1.27a72.44 72.44 0 0 1 1.67-9 42.65 42.65 0 0 1 .33-1.24c.63-2.36 1.15-3.77 1.15-3.77a75.91 75.91 0 0 0 8.87.86h1.27c15.52.41 31.31-3.11 38.63-5l1.23-.32 3-.85a65.86 65.86 0 0 0 1.62 3.11l.54 1.15a64.43 64.43 0 0 1 4.47 12.68 1.16 1.16 0 0 1 0 .18l.28 1.26a2.21 2.21 0 0 0 .05.25c.74 3.52 1.42 7.2 1.88 10.72h0l.17 1.35c.9 7.75 1.04 11.57-2.04 13.34z" class="W"/><g class="f"><path d="M392.49 179.57h-.09a18 18 0 0 1-6.1-5.7l-.69-1.06h0a39.39 39.39 0 0 1-4.31-10.66l1.23-.32a37.48 37.48 0 0 0 4.23 10.41 22.06 22.06 0 0 0 .71 1.07 16.84 16.84 0 0 0 4.66 4.61 1.16 1.16 0 0 1 0 .18l.28 1.26a2.21 2.21 0 0 0 .08.21zm-49.83-12.45a35.57 35.57 0 0 1-3 11.3l-.61 1.17a17 17 0 0 1-4.4 5.3 13.59 13.59 0 0 1-6 2.73c0-.44.07-.89.11-1.33a12.38 12.38 0 0 0 5.17-2.42 15.59 15.59 0 0 0 3.84-4.53l.63-1.16a33.59 33.59 0 0 0 3-11.1z"/><path d="M387.65 165.2l-2.83 1.2-1.2.47a84.66 84.66 0 0 1-21.8 5.49l-1 .1a119.63 119.63 0 0 1-21.45-.22l-1.34-.13a179.01 179.01 0 0 1-7-.88 42.65 42.65 0 0 1 .33-1.24l7.22.9 1.31.12a116 116 0 0 0 21.79.09 83.69 83.69 0 0 0 21.33-5.35h0l1.19-.48 2.91-1.23z"/></g><path d="M405.32 259.02c-1.66-25.66-5.43-49.44-10.95-68.73l-30.49 14.21c.94 23.36 5.64 39.53 11 54.52z" class="W"/><path d="M379.88 259.02a199.06 199.06 0 0 1-10.42-46.17.64.64 0 0 0-1.27.09 200.49 200.49 0 0 0 10.35 46.08z" class="f"/><path d="M357.79 259.02c1.89-18.22 4.06-40.61 4.33-49.28l-33.7-18s-5.94 20.51-2.05 67.3z" class="W"/><g class="f"><path d="M354.71 259.02l5.65-46.67a.73.73 0 0 0-1.44-.18l-5.67 46.85zm10.34-53.42a.65.65 0 0 0 .71.56h0a.65.65 0 0 0 .56-.71l-.82-7.23c0-.42-.09-.85-.13-1.28l-1.93-21.28c0-.44-.07-.88-.11-1.29l-.24-3.2h-1.28l.25 3.23c0 .41.07.85.1 1.29l1.92 21.12c0 .43.09.87.13 1.3l.84 7.49z"/><path d="M361.88 197.62a15.71 15.71 0 0 0 2.33.49 10.68 10.68 0 0 0 1.29.11 9.88 9.88 0 0 0 1.22 0 4.39 4.39 0 0 0 2-.7 2.71 2.71 0 0 0 1.1-2.23c0-2.5-.68-12.67-1.22-19.86 0-.44-.07-.87-.1-1.29l-.24-3.08h-1.27l.24 3.12c0 .42.06.85.1 1.29l1.21 19.74a1.43 1.43 0 0 1-.57 1.23 4.37 4.37 0 0 1-2.64.49c-.44 0-.88-.07-1.29-.13a15.29 15.29 0 0 1-1.84-.41.64.64 0 0 0-.865.763.64.64 0 0 0 .505.457z"/></g><path d="M323.48 97.75l48.64-1.26c-1.51-2.11-1.37-22.26-2.05-26.43s-.16-12.81.49-19.77a22.1 22.1 0 0 0-23-24.15h-.61C326.5 27.44 325 44.96 326.9 55.56c1.73 9.73 2.98 36.06-3.42 42.19z" class="W"/><path d="M334.03 160.95l3.93 16.44c9.79-.78 21.39-2.2 30.12-6.71 0 0 11.63 3.91 17.53 2.09l-4.32-11.82z" class="X"/><path d="M391.61 173.12c-11.3-.07-18.09-1.54-24.25-6.58-11.55 12-40.11 12.46-40.11 12.46 2.86-9.22 3.79-25.52 3.79-25.52-.22-1.7-.34-3.46-.52-5.24a35.9 35.9 0 0 0-.88-5.38c-2.82-8.13-6.12-14-9.05-22.36l-.58-1.63a23.01 23.01 0 0 0-.39-1.07l-3.08-7.77c-4.73-11-5.49-23.43 5.88-27.21l2.43-.79c5.38-1.7 9.86-2.82 11.11-3.12l.34-.09 23.87 2 2.27.19c3.34.37 6.87.28 9.11.77 2 .43 3.15.33 5.15.92 4.7 1.39 4.57 7.71 6 15.57 0 .14 0 .27.08.41v.14c.25 1.33.56 2.65.9 4 .39 1.46.82 2.91 1.27 4.31 2.75 8.63 6.07 12.6 5.5 18-.51 4.92-5.53 11.63-6.86 13.06-.31.33-.49.5-.49.5a.22.22 0 0 0 0 .08c0 .19 0 .4.07.62a78.47 78.47 0 0 0 .43 2.93c.41 4.15 1 7.91 1.66 11.27.36 1.8.75 3.49 1.14 5.06a67.38 67.38 0 0 0 5.21 14.47z" class="a"/><g class="c"><path d="M386.47 158.62l-5.83 2.85-2.41-4.54a47.49 47.49 0 0 0 7.1-3.37 15.34 15.34 0 0 1 1.14 5.06zm-52.08-4.26s10.87 4.61 18.9 5.39l-1.23 5s-13.16-2.18-18.44-5.93zm50.72-16.93a.59.59 0 0 0 .44-.19c.3-.31 7.19-7.66 4.79-14.38-.67-1.86-1.45-3.75-2.27-5.74-2.5-6.06-5.33-12.92-6.05-21.83a.62.62 0 0 0-.66-.56.63.63 0 0 0-.57.66c.74 9.1 3.61 16.06 6.15 22.2l2.24 5.69c2.15 6-4.45 13.05-4.52 13.12a.61.61 0 0 0 0 .86.59.59 0 0 0 .45.17z"/><use xlink:href="#B"/><use xlink:href="#B" x="2" y="11.87"/><path d="M368.24 135.13a1.34 1.34 0 0 1-2.679-.04 1.34 1.34 0 0 1 1.319-1.34 1.33 1.33 0 0 1 1.36 1.38z"/><use xlink:href="#B" x="3.71" y="36.34"/><use xlink:href="#B" x="3.65" y="49.24"/><path d="M357.43 80.75a31.18 31.18 0 0 1 8.82.49l-.4 13.62-3.09.66 2.61 2.57-3.13 9.14s-4.28-15.17-4.81-26.48z"/><path d="M336.3 78.82l-9.48 2.6 11.14 14.8 8.35-.67-2.93 6.39 18.86 5.32s-21.85-20.74-23.59-28.24z"/></g><path d="M337.96 79.93s5.44 11.6 24.28 27.33a149.27 149.27 0 0 0-4.8-25.63c0 0-11.09 3.86-19.48-1.7z" class="X"/><path d="M364.88 116.97c-6.2 0-18.86-8.89-19.39-9.26a.5.5 0 0 1-.12-.71.51.51 0 0 1 .71-.13c.12.1 12.92 9.08 18.8 9.08 5.63 0 6.88-6.15 6.89-6.21a.51.51 0 0 1 1 .19c-.03.07-1.45 7.04-7.89 7.04z" class="c"/><path d="M357.43 80.75l.26 3.21c.47 6-3.79 7.69-10 4.52-4.9-2.51-9.06-6.26-9.74-8.58z" class="Y"/><path d="M348.55 141.97a.56.56 0 0 0 .75.2 31.82 31.82 0 0 1 20-3 34.36 34.36 0 0 0 13.95.16c0-.22-.05-.43-.07-.62v-.08s.18-.17.49-.5a32.77 32.77 0 0 1-14.15 0 32.43 32.43 0 0 0-20.75 3.09.56.56 0 0 0-.22.75z" class="c"/><path d="M367.66 40.75s2.76 10.81 1 12.7-4.37-2.16-4.37-2.16 1.28-10.07 3.37-10.54z" class="W"/><path d="M364.63 55.1s2.84-3.37 4.45 0 .37 10.16-4 9.05z" class="b"/><path d="M362.13 63.46a4.64 4.64 0 0 0 2 8.827 4.64 4.64 0 0 0 2-8.827 4.48 4.48 0 0 0-1.74-.45l-.33-.86h.05a5.5 5.5 0 0 1 1.423 10.816A5.5 5.5 0 0 1 361.4 62.87z" class="X"/><path d="M357.44 72.35v9.28s-4.89 8-19.48-1.7c2.76-3.08 2.84-9.05 1.73-12.6a19.52 19.52 0 0 0 2.83 1.5c.37.17.75.34 1.17.51 3.64 1.53 9.13 3.41 13.75 3.01z" class="Y"/><path d="M357.44 72.35v4.34c-4-.88-10.92-3-14.92-7.86.37.17.75.34 1.17.51 3.64 1.53 9.13 3.41 13.75 3.01z" class="W"/><path d="M365.37 69.32c-7.8 8.06-25.09-1.56-25.64-1.87h0c-.16-.72-.3-1.44-.43-2.15a56.46 56.46 0 0 1-.56-16.85 12.77 12.77 0 0 1 8.26-12.7c5.44-2 10.31.41 13.24 1.32 4.43 1.36 7.21 7.08 7.23 15.22.03 10-.17 15.03-2.1 17.03z" class="Y"/><g class="W"><path d="M366.55 43l-5.55.59-1-5-.34 5.08c-3.5.23-7.13.33-10.86.33l-.5-5.25-1 5.24c-2.76 0-5.56-.07-8.38-.15-2.26-10.44 9.07-15 18.59-12.82S366.55 43 366.55 43z"/><path d="M346.13 40.75s-3.51 4.68-1.59 9 .58 8.61-.34 11.78c0 0-2-7-6.67-8.3s-2.27-14.08 8.6-12.48z"/></g><path d="M358.68 64.92a4.24 4.24 0 0 0 1.91-.14.32.32 0 0 0 .21-.42.34.34 0 0 0-.42-.21h0a3.53 3.53 0 0 1-3-.45.34.34 0 0 0-.47.08.33.33 0 0 0 .08.46 3.65 3.65 0 0 0 1.69.68z" class="b"/><path d="M363.63 59.75s-5.41 1.89-9.49-.79c0 0 1.43 3.66 4.94 4s4.55-3.21 4.55-3.21z" class="X"/><path d="M355 44.88s1.62.16 1.05 1.65-3.81-.16-6.13 2.58c-.04 0-.99-3.56 5.08-4.23zm7.33 0s-1.62.16-1.05 1.65 3.81-.16 6.13 2.58c0 0 .99-3.56-5.08-4.23z" class="W"/><g class="b"><path d="M354.12 55.87c0 .75-1.55 1.37-3.47 1.37s-3.47-.62-3.47-1.37 1.56-1.37 3.47-1.37 3.47.62 3.47 1.37z" class="d"/><path d="M368.26 57.2h-.83c-1.92 0-3.47-.62-3.47-1.37s1.55-1.37 3.47-1.37h.75z"/></g><path d="M354.52 52.29c0 1-.47 1.88-1.05 1.88s-1-.84-1-1.88.47-1.87 1-1.87 1.05.84 1.05 1.87zm10.25 0c0 1-.47 1.88-1.05 1.88s-1-.84-1-1.88.47-1.87 1-1.87 1.05.84 1.05 1.87zm-4.02 3.95a3.56 3.56 0 0 0 .86-.09.43.43 0 0 0 .3-.55l-1.58-4.52a.42.42 0 0 0-.54-.26.43.43 0 0 0-.27.54l1.41 4a3.42 3.42 0 0 1-1.75-.38.44.44 0 0 0-.58.17.43.43 0 0 0 .18.58 4.12 4.12 0 0 0 1.97.51zm-17.65 7.01c-.05.11-1.42 3.27-3.37 4.2h0l-.43-2.15a7.91 7.91 0 0 0 3.8-2.05z" class="W"/><path d="M341.2 56.05s-4.14-5.56-7.18-1.19c-2.5 3.6 2.21 13.2 7.27 9.69z" class="Y"/><path d="M336.88 64.61a4.65 4.65 0 0 0 2 8.848 4.65 4.65 0 0 0 2-8.848 4.61 4.61 0 0 0-1.74-.45l-.33-.86h.07a5.49 5.49 0 1 1 0 10.98 5.49 5.49 0 0 1-5.49-5.49 5.57 5.57 0 0 1 2.8-4.8 5.62 5.62 0 0 0 .69.62z" class="X"/><g class="W"><path d="M340.63 62.96h.05a.44.44 0 0 0 .38-.47 8 8 0 0 0-4.67-6.44.43.43 0 0 0-.636.452.43.43 0 0 0 .316.338 7.1 7.1 0 0 1 4.14 5.74.42.42 0 0 0 .42.38z"/><path d="M336.65 60.38a.45.45 0 0 0 .27-.1h0c.37-.3 1.5-1 2.23-.85a.43.43 0 0 0 .554-.535.43.43 0 0 0-.344-.295c-1.28-.32-2.8.88-3 1a.43.43 0 0 0-.07.6.45.45 0 0 0 .36.18z"/></g><path d="M308.36 144.13s1.36 2.93-.21 9.35a36.64 36.64 0 0 1-4.2 10.44c0 0-6.59-9.99 4.41-19.79z" class="c"/><path d="M279.32 137.99c0 .32 0 .65.07 1s.09.63.14.94c0 .16.05.32.09.47l.1.45a16.33 16.33 0 0 0 1.2 3.31 15.26 15.26 0 0 0 .78 1.39l.41.64.42.59a21.7 21.7 0 0 0 3.52 3.7 32.2 32.2 0 0 0 3.5 2.53l1.7 1 1.69.93 3.32 1.63 6.56 2.63 6.51 2.08 6.5 1.76 6.53 1.47a27.41 27.41 0 0 0 3 .36l4.87.43c.3-1.79-1.22-3.25-.92-5.05l1.08-6.3-.87-1.88-4-1h-.12l-5.74-1.72-5.73-2-5.51-2.28-5.13-2.57-2.32-1.4-1-.74-.95-.75a11.43 11.43 0 0 1-1.22-1.15l-.28-.32h0l.31-.43.55-.76.89-1.2 1.85-2.42 1.91-2.42 3.91-4.85 1-1.22 1-1.21 1.4-1.7.6-.72.73-.88 1.29-1.54 2-2.42 4.08-4.83 8.17-9.64v-.06c3.471-4.037 3.012-10.124-1.025-13.595s-10.124-3.012-13.595 1.025l-2.15 2.46-2.1 2.46-2.08 2.47-2.08 2.48-4.1 5-2 2.53-.27.33-1.75 2.21-2 2.56-1 1.29-.44.59-.55.71q-2 2.6-3.93 5.25l-1.94 2.69-1.92 2.76-1 1.41-.95 1.44-.24.36-.06.09h0l-.05.08-.2.32-.39.65-.18.35-.19.35c-.12.24-.24.47-.35.73l-.33.78-.15.4a4.13 4.13 0 0 0-.14.42c-.1.28-.18.56-.27.85s-.14.6-.21.9a8.81 8.81 0 0 0-.17.92l-.11.95c-.03.32 0 .64-.05 1v.49c.07.12.08.28.08.44z" class="Y"/><path d="M321.5 149.87a4.32 4.32 0 0 0-3.49-1.13s-4.53 7.7-2.18 14.3a4.42 4.42 0 0 0 3.26.76s-2.21-7.93 2.41-13.93z"/><path d="M312.69 156.59a4.58 4.58 0 0 0 9.145-.524 4.58 4.58 0 0 0-7.99-2.793 4.58 4.58 0 0 0-1.155 3.317z"/><path d="M317.46 159.75a3.43 3.43 0 0 0-.39-6.849 3.43 3.43 0 0 0-3.23 3.619 3.44 3.44 0 0 0 3.62 3.23z" class="X"/><path d="M325.36 164.63l4.87.44c.29-1.8-1.22-3.26-.92-5l1.08-6.31-.87-1.88-4-1h-.12c-.52 2.87-1.35 9.16-.04 13.75z" class="b"/><path d="M329.63 92.95a9.1 9.1 0 0 1-1.84 8.65c-3.86 4.46-11.24 13.08-15.33 18.49l-12.95 17a107 107 0 0 0 8.85 7 18 18 0 0 0-4.41 19.79s-16-8.81-24.14-17.27c-5.93-6.18-4.28-13.89 1.13-21.27 2.73-3.72 23.79-27.73 31.28-36.12a10.32 10.32 0 0 1 11-3 9.76 9.76 0 0 1 6.41 6.73z" class="a"/><path d="M325.73 153.07l1.58-7.2c.79-2.93 2.39-3.84 2.39-3.84a32.07 32.07 0 0 1 .9 6.85 2.91 2.91 0 0 1 2.51-.5c1.62.32 7.2 1.51 7.27 2.8.17 2.95-6.83 1.55-6.83 1.55s7.49 1.41 7.3 3.47c-.15 1.67-6.93 2-6.93 2s6.53.06 5.75 2.41-6.9.92-6.9.92 4.37 2.1 3.95 3c-.61 1.26-3.2 1.62-7.38.6s-3.61-12.06-3.61-12.06z" class="Y"/><g class="c"><path d="M318.01 114.75a.6.6 0 0 1-.46-.13.58.58 0 0 1-.07-.82l9.68-11.48a.56.56 0 0 1 .81-.07.57.57 0 0 1 .07.81l-9.68 11.49a.57.57 0 0 1-.35.2z"/><path d="M328.53 106.18l-3.65.57a.58.58 0 1 1-.17-1.14l3.65-.56a.58.58 0 0 1 .18 1.14zm-39.39 33.45a.41.41 0 0 0 .24.15.43.43 0 0 0 .29-.07c2.76-2.05 7.67-2.27 10.1-2.24l-.27-.32h0l.31-.43h-.72c-1.52-1.47-5.62-2.89-5.8-3a.38.38 0 0 0-.48.24.37.37 0 0 0 .24.47 27.06 27.06 0 0 1 4.83 2.32c-2.67.11-6.33.62-8.68 2.36a.38.38 0 0 0-.06.52z"/></g><ellipse cx="134.94" cy="410.66" rx="127.36" ry="7.77" class="Z"/><path d="M153.53 167.75l.16.75.12.61.21 1.15.36 2.21.55 4.32q.47 4.29.67 8.53.2 4.24.14 8.49-.06 4.25-.35 8.48l-.85 8.44-.61 4.21-.34 2.1-.39 2.09-.42 2.09-.45 2.08-1 4.14-.54 2.07-.58 2.05-.15.52-.07.25-.16.53c-.14.49-.3.91-.46 1.34s-.34.82-.51 1.17l-.52 1-.27.48-.26.45-.27.44-.27.4-.52.77a31.53 31.53 0 0 1-2.06 2.55 23.57 23.57 0 0 1-2 2c-1.29 1.24-2.54 2.29-3.77 3.28-2.47 1.95-4.88 3.61-7.28 5.15-4.81 3.07-9.57 5.72-14.38 8.21s-9.61 4.79-14.45 7q-3.64 1.64-7.3 3.2l-3.63 1.66-1.86.76-1.91.76-8.38-18.94 1.62-.83 1.67-.87 3.36-1.75 6.66-3.58c4.42-2.42 8.79-4.9 13-7.44l6.25-3.89c2.04-1.31 4-2.66 5.91-4a61.83 61.83 0 0 0 5.19-4.08c.76-.67 1.45-1.33 2-1.91a8.18 8.18 0 0 0 1-1.3h0 0 0v.05a.72.72 0 0 0-.1.18c0 .06-.09.17-.13.27a4 4 0 0 0-.16.43v.12-.05l.05-.22.1-.42.39-1.7c.13-.57.23-1.15.35-1.72.25-1.14.44-2.29.65-3.44.11-.57.19-1.15.28-1.73l.27-1.73c.33-2.31.59-4.64.81-7s.33-4.68.43-7 .1-4.7.06-7-.13-4.69-.29-7-.36-4.66-.64-6.94a85.38 85.38 0 0 0-.48-3.37c-.08-.56-.17-1.1-.26-1.63l-.14-.75-.1-.54z" class="Y"/><path d="M125.66 174.24l-4.78 36.11c7.11 4 13.85 6.83 20 8z" class="h"/><g class="b"><path d="M135.77 230.05a.64.64 0 0 1-.3-.08 64.27 64.27 0 0 0-8.84-3.72c-.331-.11-.51-.469-.4-.8s.469-.51.8-.4a64.1 64.1 0 0 1 9 3.81.62.62 0 0 1 .26.85.63.63 0 0 1-.52.34z"/><path d="M127.18 226.4a.63.63 0 1 1-.07-1.26c2.63-.29 6.08-.31 6.22-.31h0a.64.64 0 0 1 .64.63.64.64 0 0 1-.63.64l-6.09.3z"/></g><path d="M58.71 374.61l-6.57 10.72-12.5-5.53 5.67-11.53 13.4 6.34z" class="Y"/><path d="M.02 385.89l47.31 20.94a7.11 7.11 0 0 0 1.79-2.35c2.06-3.87 3.62-10.82 4.77-15.13.13-.5.26-1 .39-1.39a14.23 14.23 0 0 1 .6-1.71c1.45-3.28-1.71-4-1.71-4-6.86 2.58-9.17-6.86-13.35-5.95 0 0-1.8.37-7 2.09s-12.63 1.12-19.07 1c-8.32-.18-11.61 1.87-12.89 3.72a4 4 0 0 0-.84 2.78z" class="l"/><g class="i"><path d="M.02 385.89l47.31 20.94a7.11 7.11 0 0 0 1.79-2.35L.8 383.09a4 4 0 0 0-.78 2.8z"/><path d="M42.5 404.69l1.41.63a11.35 11.35 0 0 1 .81-8.7 14.6 14.6 0 0 1 9.16-7.27l.39-1.39a15.85 15.85 0 0 0-10.66 8.1 12.57 12.57 0 0 0-1.11 8.63z"/></g><path d="M32.32 381.52a.85.85 0 0 0 .87-1.45l-2.63-2a.85.85 0 0 0-1 1.35l2.63 2a.59.59 0 0 0 .13.1zm4.03-1.16a.85.85 0 0 0 .87-1.45l-2.63-2a.86.86 0 1 0-1.05 1.35l2.63 2a.81.81 0 0 0 .18.1zm-7.74 1.57a.85.85 0 0 0 .87-1.45l-2.63-2a.86.86 0 1 0-1 1.35l2.63 2a.81.81 0 0 0 .13.1zm-3.73.35a.86.86 0 0 0 .87-1.46l-2.63-2a.86.86 0 0 0-1.05 1.35l2.63 2zm-3.86.1a.86.86 0 0 0 1-.26.84.84 0 0 0-.15-1.19l-2.63-2.05a.85.85 0 1 0-1 1.35l2.63 2a.62.62 0 0 0 .15.15zm-4.07-.25a.85.85 0 0 0 .87-1.45l-2.63-2a.86.86 0 0 0-1.2.15.87.87 0 0 0 .15 1.2l2.64 2a.59.59 0 0 0 .17.1z" class="X"/><path d="M88.08 271.14c4.39-4.32 39-14 62-7.56a29.89 29.89 0 0 1-2.2 29.81c-30.24 4.94-47.11 15.11-47.11 15.11s-10.72 24.77-17.09 33.86-21 38-21 38l-22-9.4s35.45-88.05 47.4-99.82z" class="W"/><g class="f"><path d="M65.04 374.88a.69.69 0 0 1-.24-.05l-21.54-8.95a.64.64 0 0 1-.34-.83.62.62 0 0 1 .83-.34l21.53 9a.63.63 0 0 1 .35.83.65.65 0 0 1-.59.34z"/><path d="M61.42 373.07a.59.59 0 0 1-.23-.05.63.63 0 0 1-.36-.82c0-.11 4.55-11.36 15.06-27.31S97.25 302.27 97.36 302a.64.64 0 0 1 1.18.47c-.11.27-11.08 27.17-21.59 43.12s-14.9 27-14.94 27.08a.64.64 0 0 1-.59.4z"/></g><path d="M114.26 376.5l-1.67 12.46H98.92l.52-12.83 14.82.37z" class="Y"/><path d="M65.16 410.57h51.72a7.2 7.2 0 0 0 .69-2.88c.32-4.37-1.08-11.36-1.76-15.76l-.21-1.43a14.19 14.19 0 0 1-.15-1.8c0-3.59-3.18-3-3.18-3-5.24 5.14-11.17-2.56-14.63 0 0 0-1.49 1.07-5.6 4.77s-11.09 6.13-17 8.62c-7.67 3.21-9.85 6.42-10.28 8.62a4.08 4.08 0 0 0 .4 2.86z" class="l"/><g class="i"><path d="M65.16 410.57h51.72a7.2 7.2 0 0 0 .69-2.88H64.73a4.08 4.08 0 0 0 .43 2.88z"/><path d="M111.62 410.57h1.53a11.36 11.36 0 0 1-2.78-8.29 14.6 14.6 0 0 1 5.45-10.35l-.21-1.43a15.85 15.85 0 0 0-6.47 11.72 12.57 12.57 0 0 0 2.48 8.35z"/></g><path d="M92.93 393.5a.85.85 0 0 0 .2-1.68l-3.23-.8a.85.85 0 1 0-.41 1.65l3.23.81zm3.21-2.69a.85.85 0 0 0 .21-1.68l-3.24-.8a.84.84 0 0 0-1 .62.85.85 0 0 0 .62 1l3.23.8a.76.76 0 0 0 .18.06zm-6.44 4.57a.85.85 0 0 0 .18-1.63l-3.23-.8a.85.85 0 1 0-.41 1.65l3.23.8zm-3.23 1.81a.85.85 0 0 0 .2-1.68l-3.23-.81c-.458-.113-.922.167-1.035.625s.167.922.625 1.035l3.23.8zm-3.53 1.67a.86.86 0 0 0 .83-.65.85.85 0 0 0-.62-1l-3.24-.81c-.458-.113-.922.167-1.035.625s.167.922.625 1.035l3.24.8a.64.64 0 0 0 .2 0zm-3.82 1.42a.85.85 0 0 0 .2-1.68l-3.23-.8a.84.84 0 0 0-1 .62.85.85 0 0 0 .62 1l3.23.8z" class="X"/><path d="M217.88 273.39c0 .21-.05.41-.08.6s-.21.16-.31.24a72.34 72.34 0 0 1-27 12.59l-1 .24a127.11 127.11 0 0 1-4.94 1l-6.68.85a90.19 90.19 0 0 1-5.82.31 71.62 71.62 0 0 1-22.77-3.05l-.76-.24a44.93 44.93 0 0 1-5-2l-.71-.33c-1-.48-1.9-1-2.78-1.52.13-3.19.17-7 .14-11.09v-1c-.05-5.68-.23-11.81-.45-17.41v-.79l-.38-8.19c0-.26 0-.53-.05-.78l-.32-5.48c0-.39 0-.78-.08-1.16l-.06-.89h0l-.26-3.17-.47-4.83-.63-5.2a186.93 186.93 0 0 0-.77-5.21 205.18 205.18 0 0 0-.91-5.16 165.31 165.31 0 0 0-3.61-15.14l-.26-.87c-.51-1.72-1-3.31-1.51-4.81-.11-.33-.22-.65-.32-1-2.78-8.25-5.08-13.23-5.12-16.57-.08-6.95 5-9.18 10.3-12l.75-.4a50.58 50.58 0 0 0 2.65-1.54 12.66 12.66 0 0 0 1.08-.72c.25-.17.49-.35.72-.52a15.74 15.74 0 0 0 5.14-6.53l20-4.22a28.15 28.15 0 0 0 5.13 1.85l.94.24c.37.09.77.18 1.18.25.25.06.51.1.78.15l.62.11a38.13 38.13 0 0 0 6.65.44h.77.54a13.72 13.72 0 0 1 4.88.63h0c.3.1.6.2.89.32 6.5 2.6 11.62 10.38 14.94 22.33l2.71 9.72.28 1 .57 2.07h0l.2.75 2 7.26h0a21.29 21.29 0 0 0 .2.76h0c0 .14.08.27.11.4l.36 1.4a226.46 226.46 0 0 1 5.26 25.1c.25 1.72.47 3.46.66 5.2 0 .42.09.89.14 1.42v.29c0 .1 0 .36.05.55v.28l1.14 12.32c0 .25 0 .51.07.77 1.06 11.2 1.89 24.52 1.2 30.38z" class="e"/><g class="h"><path d="M156.95 163.41c8-1.69 12.32-11.7 12.51-12.13a.58.58 0 0 0-1.06-.45c0 .11-4.43 10.29-12.15 11.54s-10.61-4.35-10.73-4.59a.57.57 0 0 0-.77-.24.58.58 0 0 0-.25.77 11.25 11.25 0 0 0 11.94 5.19zm8.11 106.44c7.53-1.59 15.3-5.45 23.06-11.52a100.74 100.74 0 0 0 17.76-18.09.58.58 0 0 0-.13-.8.58.58 0 0 0-.8.13 99.59 99.59 0 0 1-17.52 17.88c-9.67 7.54-24.44 15.5-40 10.54-.301-.097-.623.069-.72.37s.069.623.37.72a34.77 34.77 0 0 0 17.98.77zm-4.5-5.74h0c11.71-2.67 18-20.35 18.27-21.1a.57.57 0 0 0-.35-.73.56.56 0 0 0-.73.35c-.06.18-6.35 17.83-17.44 20.36-.309.066-.506.371-.44.68s.371.506.68.44zm-21.63-27.96a17.56 17.56 0 0 0 3.9-3.65c2.61-3.4 3-6.88 1-9.8l-1.1-1.61c-4-5.88-4.45-6.49-4.1-16.16.11-3-.74-5.44-2.54-7.11a9.66 9.66 0 0 0-4.11-2.15l.26.87a8.53 8.53 0 0 1 3.33 1.85 8.05 8.05 0 0 1 2.3 6.51c-.36 9.92.16 10.68 4.23 16.62l1.1 1.61c2.4 3.53.43 7.1-1 8.91a16.2 16.2 0 0 1-3.32 3.21h0c0 .3 0 .6.05.9zm76.67-6.23a15.07 15.07 0 0 1-4.51 1.79 10.1 10.1 0 0 1-9.43-2.54 7.64 7.64 0 0 1-.51-10.61c3-3.41 1.7-5.23.08-7.52s-3.59-5.08-1.52-10a10 10 0 0 1 5.44-5.78 10.26 10.26 0 0 1 3.6-.72 21.29 21.29 0 0 0 .2.76 9.75 9.75 0 0 0-3.52.67 9.3 9.3 0 0 0-5 5.37c-1.9 4.55-.2 7 1.45 9.29s3.25 4.6-.13 8.46a6.81 6.81 0 0 0 .47 9.57c2.81 2.83 7.79 3.8 13.32.46 0 .18 0 .36.05.55zm-52.24 2.88a8.73 8.73 0 0 0 9.94 3.79 17.18 17.18 0 0 0 1.8-.65c4.91-2.1 10.57-7.05 12.74-12.81a14.29 14.29 0 0 0-1.49-13.14c-3.92-6.14-6.19-11.85-6.57-16.49a6.05 6.05 0 0 0-11.39-2.32l-.21.39c-3.3 6.44-1.33 11.1.41 15.21 1.83 4.29 3.4 8-1.58 12.83-4.53 4.39-5.89 9.32-3.65 13.19zm4.18-12.64c5.36-5.19 3.6-9.32 1.75-13.68-1.75-4.15-3.57-8.44-.43-14.56l.2-.39a5.21 5.21 0 0 1 5.75-2.72 5.2 5.2 0 0 1 4.21 4.75 28.58 28.58 0 0 0 2.39 8.85 55.68 55.68 0 0 0 4.3 8 13.38 13.38 0 0 1 1.41 12.47c-2.35 6.25-9 11.52-14 13a7.94 7.94 0 0 1-9-3.45c-2.15-3.56-.84-8.14 3.42-12.27zm-37.41-30.27l.32 1a12.14 12.14 0 0 0 7.1.61 13.92 13.92 0 0 0 2.57-.82c4.89-2.11 8.21-6.64 8.13-9.38a2.17 2.17 0 0 0-1.45-2.11c-5.26-1.92-7.41-5.39-8.21-13.28a6.85 6.85 0 0 0-2.53-4.95l-.75.4.19.13a6.09 6.09 0 0 1 2.38 4.46c.84 8.25 3.11 11.89 8.7 13.93a1.39 1.39 0 0 1 1 1.41c.07 2.49-3.19 6.72-7.67 8.66a11.71 11.71 0 0 1-9.78-.06zm27.15 1.26a4.16 4.16 0 0 0 4 1.09 5.15 5.15 0 0 0 1.47-.55c2.42-1.34 3.32-4.14 2.41-7.48s.86-5.15 2.61-6.76c1.53-1.41 3.12-2.88 1.87-5.38a4.78 4.78 0 0 0-5.12-2.6 8.27 8.27 0 0 0-6.59 4.62c-2.27 4.43-4.42 12.98-.65 17.06zm1.3-16.72a7.72 7.72 0 0 1 5.2-4.08 7 7 0 0 1 .78-.11 4 4 0 0 1 4.37 2.17c1 2-.14 3-1.71 4.48-1.74 1.6-3.9 3.59-2.82 7.52.81 3 0 5.45-2 6.61a3.79 3.79 0 0 1-4.52-.38c-3.54-3.8-1.45-11.96.7-16.21z"/><path d="M146.03 218.22c.42 2 1.24 3.66 2.64 4.48a8.48 8.48 0 0 0 5.68 1.39 3 3 0 0 0 1.63-.87c1.23-1.33.83-3.72-1.13-6.55-2.26-3.29-.27-5.38 1.83-7.6 1.8-1.89 3.65-3.84 2.61-6.51-.75-1.92-2.47-2.81-5-2.59a9.29 9.29 0 0 0-8.25 8.05 32.32 32.32 0 0 0-.01 10.2zm.79-10.1a8.67 8.67 0 0 1 2.2-4.71 8.36 8.36 0 0 1 4.41-2.54l.95-.14c2.19-.19 3.57.49 4.19 2.11.87 2.22-.73 3.91-2.44 5.71-2.12 2.22-4.52 4.76-1.91 8.55 1.74 2.52 2.17 4.56 1.19 5.6s-3.7.9-6.35-.66c-2.44-1.43-3.24-6.38-2.24-13.92zm-7.03 44.43c3.07-1.11 4.1.43 5.59 2.65 1.34 2 3 4.47 6.74 5.35a8.26 8.26 0 0 0 3.63.05 9.82 9.82 0 0 0 6.65-5.4c1.59-3.39.89-6.78-1.84-8.83a4.24 4.24 0 0 1-1.92-2.59c-.16-1.2.74-2.36 1.7-3.59 1.33-1.71 2.83-3.65 1.68-6.12a5.54 5.54 0 0 0-4.82-3.27c-3.66-.27-7.76 2.21-10.45 6.3a13.37 13.37 0 0 1-7.42 5.69c0 .26 0 .52.05.78a14.18 14.18 0 0 0 8-6.05 13 13 0 0 1 7.71-5.81 7.15 7.15 0 0 1 2.05-.15 4.8 4.8 0 0 1 4.18 2.83c1 2.05-.28 3.64-1.59 5.33-1 1.3-2.06 2.64-1.86 4.16a5 5 0 0 0 2.22 3.1c2.9 2.18 2.73 5.51 1.61 7.9-1.5 3.19-5.22 5.92-9.42 4.93-3.44-.81-4.94-3.05-6.27-5-1.49-2.22-2.8-4.17-6.26-3zm38.88-9.27a3.1 3.1 0 0 0 2.23 2.56 4.55 4.55 0 0 0 2.08 0 9.61 9.61 0 0 0 4.9-3.09c1.52-1.72 3-1.51 5.14-1.2a12.78 12.78 0 0 0 7.82-.82 5.74 5.74 0 0 0 3.24-7.5 5 5 0 0 0-6.39-3.13 15.86 15.86 0 0 0-5 2.89c-2 1.54-3.69 2.87-7.59 2.63a5.67 5.67 0 0 0-4.61 1.55c-2.16 2.21-1.87 5.95-1.86 6.11a.08.08 0 0 1 .04 0zm.75-.12c0-.29-.19-3.61 1.65-5.5a4.89 4.89 0 0 1 4-1.31c4.19.25 6.09-1.23 8.1-2.8a15.13 15.13 0 0 1 4.78-2.77 4.28 4.28 0 0 1 5.44 2.68 5 5 0 0 1-2.84 6.54 11.88 11.88 0 0 1-7.4.75 9.48 9.48 0 0 0-3.3-.1 4.48 4.48 0 0 0-2.52 1.55c-1.93 2.18-4.5 3.38-6.25 2.91a2.34 2.34 0 0 1-1.66-1.95zm32.73 18.52c-2.63 4.34-1.52 9.17 1.07 11.34a5.33 5.33 0 0 0 4.3 1.21 3.65 3.65 0 0 0 .31-.24c0-.19.06-.39.08-.6a4.61 4.61 0 0 1-4.2-1c-2.34-2-3.32-6.37-.91-10.35s.52-5.29-1.52-6.61c-1.88-1.22-3.82-2.48-3.53-6.1a5.92 5.92 0 0 1 2.16-4.28 9.38 9.38 0 0 1 3.97-1.7 17.24 17.24 0 0 1 3-.34c0-.26 0-.52-.07-.77-2.17.08-5.19.53-7.31 2.26a6.6 6.6 0 0 0-2.44 4.8c-.33 4.09 2 5.59 3.87 6.81 1.95 1.3 3.28 2.17 1.22 5.57zm-63.57 24.22l.76.25a7.93 7.93 0 0 1 2.06-5.4c1.46-1.42 3.64-2 6.47-1.66a10.92 10.92 0 0 1 7 3.36c2.53 2.32 4.28 3.42 10.89-.89a20.37 20.37 0 0 1 6.87-3c3.28-.69 5.8 0 7.12 1.34 1.63 1.68 1.54 4.32-.19 7.19l1-.24c1.57-2.94 1.49-5.67-.27-7.48-2.35-2.42-8-2.95-15 1.57-6.43 4.21-7.76 3-9.95 1a11.7 11.7 0 0 0-7.42-3.56c-3.08-.34-5.47.29-7.1 1.87a8.56 8.56 0 0 0-2.24 5.65zm42.93-12.3c1 2 4.11 3.74 7.06 3.12l.39-.09c4.5-1.28 7.09-4.92 7.29-10.27.15-4.14-.23-8.2-4.07-10h-.06c-.18 0-4.42-1.07-7.06.72a4.59 4.59 0 0 0-2 3.38 8.5 8.5 0 0 0 1 5.4c.72 1.44 1 2.1-1.16 3.6-1.57 1.13-2.1 2.64-1.39 4.14zm1.88-3.49c2.62-1.79 2.24-2.9 1.42-4.57a7.77 7.77 0 0 1-1-5 3.91 3.91 0 0 1 1.64-2.85c2.25-1.52 6-.71 6.41-.62 2.74 1.27 3.78 3.95 3.58 9.22-.13 3.53-1.4 8.06-6.73 9.56-2.65.75-5.7-.79-6.55-2.61-.51-1.13-.1-2.22 1.23-3.13zm-50.51 13.47l.71.34a7.38 7.38 0 0 0 1.94-6c-.49-3.46-3.39-6.36-5.3-7.92v1c1.79 1.57 4.12 4.11 4.54 7a6.77 6.77 0 0 1-1.83 5.52z"/></g><path d="M128.16 117.18s-11.35-2.4-11.62-6.73c-.24-4 4.48-3.58 4.48-3.58s-5.51-9-2.35-10.81 7.15 3.29 7.15 3.29-2.89-10.72 1-9.95 4.36 6.66 4.36 6.66 12.83-4.57 20.12-2.38a9.34 9.34 0 0 1 6.14 6.28c0 0 2.95-1.76 5.05-.68s.18 4.76.18 4.76a6.53 6.53 0 0 1 2.25 6.45c-1 4-3.82 11.78-3.82 11.78z" class="W"/><path d="M144.18 148.68l1.1 5.22a16.61 16.61 0 0 0 2.12.9c10.2 3.53 18.55-5.26 18.55-5.26l-3.81-18.08-15.82 15.17z" class="Y"/><path d="M144.18 148.68l1.1 5.22a16.61 16.61 0 0 0 2.12.9c7.06-4.68 11-14 11-14l-12.05 5.78zm-10.04-42.23s-12.35 3.84-5 16.06c-.03 0 6.01-12.68 5-16.06z" class="W"/><path d="M132.79 126.94s-3.7-2.87-4.64 1 1.85 10.66 6.11 8.55z" class="b"/><path d="M132.22 139.88s2.25 10.79 13.46 8.4 16.9-12.73 17.2-13.21h0l-.36-2.29-1.84-11.89-1-6.36s-1-11.62-12.15-11.42c-8.18.15-15.28 3-18.13 7.89a9.81 9.81 0 0 0-1.27 6.2l2 11.36.5 2.79z" class="Y"/><path d="M155.09 122.27s-1.65 6.63-5.3 6.32-7.71.1-10.52 2.22c0 0-5.65-.85-8.32 2-1.79 1.88 2.42 15.94 10.23 16.45s17.2-4.18 18.13-11.64a41.55 41.55 0 0 0-.47-13.35z" class="W"/><path d="M136.97 133.96s6.31-.64 9.4-2.41c0 0 1.39 6.16-4 6.69-4.23.42-5.4-4.28-5.4-4.28z" class="X"/><path d="M145.11 126.85c.17.78 1.92 1.08 3.91.66s3.48-1.4 3.31-2.18-1.91-1.08-3.91-.66-3.47 1.39-3.31 2.18zm-14.42 4.48c.28 0 .58-.08.88-.14 2-.42 3.47-1.4 3.31-2.19s-1.92-1.08-3.91-.66l-.78.2z" class="b"/><path d="M144.32 122.5c.23 1.08.9 1.85 1.5 1.72s.91-1.1.68-2.18-.9-1.85-1.5-1.72-.91 1.1-.68 2.18zm-10.67 2.25c.23 1.08.9 1.85 1.51 1.72s.9-1.1.68-2.18-.9-1.85-1.51-1.72-.91 1.1-.68 2.18zm6.63 4.27a.45.45 0 1 0-.19-.88 3.1 3.1 0 0 1-2.9-.68l2-8.11a.46.46 0 0 0-.33-.55.45.45 0 0 0-.55.34l-2 8.34a.43.43 0 0 0 .07.38 3.88 3.88 0 0 0 3.9 1.16zm8.39-12.6c-.48-1.09-1.88-3-5.55-2.42a1 1 0 0 0-.82.9h0a1 1 0 0 0 1 1 4.35 4.35 0 0 1 3.64 1.61 1 1 0 0 0 1.43.07l.09-.09a1 1 0 0 0 .21-1.07zm-18.65 3.93c0-1.19.51-3.53 4.11-4.46a1 1 0 0 1 1.11.5h0a1 1 0 0 1-.49 1.35 4.36 4.36 0 0 0-2.69 2.94 1 1 0 0 1-1.27.64h-.12a1 1 0 0 1-.65-.97zm28.43 11.08c.08.11 2.19 3.1 4.44 3.64h0l-.36-2.29a8 8 0 0 1-4.08-1.35z" class="W"/><path d="M158.88 123.53s3.09-6.7 7.21-2.82c3.39 3.2.53 14-5.33 11.75z" class="Y"/><g class="W"><path d="M160.96 130.59a.44.44 0 0 0 .35-.49 7.6 7.6 0 0 1 3-6.88.45.45 0 1 0-.5-.75 8.47 8.47 0 0 0-3.45 7.72.46.46 0 0 0 .5.41z"/><path d="M164.53 127.03a.46.46 0 0 0 .35-.28.45.45 0 0 0-.2-.61c-.2-.1-2.06-1-3.32-.4a.452.452 0 0 0 .4.81 3.63 3.63 0 0 1 2.51.4.45.45 0 0 0 .26.08zm-35.1-16.05a2 2 0 0 0 .69.86c2.66 1.83 7.64-.07 12.1-2.55a8.57 8.57 0 0 1 8.55.28c-.37 4.85 4.21 4.27 4 7.94a28.21 28.21 0 0 0 1.1 8.15l2.72-1a7 7 0 0 1 2.13-3.83l-1-6.36s-1-11.62-12.16-11.42c-8.18.19-15.28 3.04-18.13 7.93zm83.54 152.95s10.68 42.13-44.69 42.13c-29.57 0-43.63-2.86-43.63-2.86s-.71 26.12-2.08 37.13-6.25 38.47-6.25 38.47l-23.29 1.8S89.3 285 103.58 276.2s34.8-9.07 70-12.45c.04 0 31.68-5.35 39.39.18z"/></g><g class="f"><path d="M113.13 371.16a.39.39 0 0 1-.15 0 .63.63 0 0 1-.47-.76c3.22-13.45 4.5-32.71 5.53-48.19 1-15.26 1.61-23.29 3.2-24.69 1.75-1.55 6.93-1 15.52-.08 10.65 1.13 26.74 2.84 44.08.85 8.62-1 15.22-4.36 19.63-10 7.92-10.16 6.1-24.43 6.08-24.58a.64.64 0 0 1 1.26-.17c.08.61 1.91 14.93-6.33 25.52-4.63 5.95-11.52 9.49-20.49 10.52-17.49 2-33.66.29-44.36-.85-7.39-.79-13.22-1.41-14.55-.23-.3.26-.9 1.57-1.52 7.36-.45 4.28-.83 9.93-1.26 16.46-1 15.53-2.31 34.85-5.56 48.4a.63.63 0 0 1-.61.44z"/><path d="M93.28 373.06a.63.63 0 0 1 0-1.26l23.82-1.44a.63.63 0 1 1 .08 1.26l-23.82 1.44z"/></g><rect x="87.3" y="266.82" width="70.35" height="9.17" rx=".29" class="Z"/><path d="M79.95 275.99a5.84 5.84 0 0 1-5.64-4.34l-13.16-49.27a4.74 4.74 0 0 1 4.58-6h31.5a4.73 4.73 0 0 1 4.56 3.46l15.76 56.11z" class="X"/><path d="M101.8 219.88l15.63 55.64h3.59l-15.63-55.64a4.74 4.74 0 0 0-4.56-3.47h-3.6a4.76 4.76 0 0 1 4.57 3.47zM92.88 247a4.31 4.31 0 0 1-4.31 5.6 7.49 7.49 0 0 1-6.9-5.6 4.32 4.32 0 0 1 4.31-5.6 7.49 7.49 0 0 1 6.9 5.6z" class="Z"/><g class="Y"><path d="M135.88 255.91s-14.28 1-18.84 5.35l2.77 9.88s8.54-3.49 10.91-3.15 3.77 4.22 11.68 1.86z"/><path d="M135.93 255.26l1.61-.65 1.68-.71 3.34-1.45 6.64-3.07c4.39-2.11 8.7-4.34 12.86-6.72a124.74 124.74 0 0 0 11.83-7.6c.91-.68 1.81-1.36 2.67-2.06s1.69-1.4 2.49-2.11a37.47 37.47 0 0 0 4.14-4.3 18.59 18.59 0 0 0 1.42-2 13.06 13.06 0 0 0 .93-1.91 24 24 0 0 0 1.34-4.93 50.27 50.27 0 0 0 .23-12.28 99.47 99.47 0 0 0-2.23-13.35 128.61 128.61 0 0 0-1.72-6.69 69.69 69.69 0 0 0-1-3.29l-.52-1.61-.27-.77-.13-.37-.06-.17v-.08h0c-2.788-6.242-.099-13.57 6.066-16.526s13.562-.466 16.684 5.616a13.22 13.22 0 0 1 .72 1.86l.38 1.31.1.34.08.29.14.53.28 1 .5 2 .89 4c.55 2.69 1 5.38 1.45 8.1a123.15 123.15 0 0 1 1.41 16.78 83.43 83.43 0 0 1-.32 8.74 62.63 62.63 0 0 1-1.48 9.1 44.4 44.4 0 0 1-3.4 9.47 35.37 35.37 0 0 1-2.82 4.65 42.12 42.12 0 0 1-3.25 3.91 57.68 57.68 0 0 1-6.83 6.1c-2.31 1.78-4.64 3.37-7 4.84a142.72 142.72 0 0 1-14.25 7.73c-4.79 2.28-9.61 4.34-14.47 6.25l-7.33 2.74-3.7 1.29-1.87.63-1.95.63a8.05 8.05 0 0 1-5.54-15.11z"/></g><g class="b"><path d="M194.36 228.15a.32.32 0 0 1-.14 0 36.2 36.2 0 0 0-10.34-1.26.5.5 0 1 1 0-1 36.5 36.5 0 0 1 10.69 1.28.49.49 0 0 1 .34.62.51.51 0 0 1-.55.36z"/><path d="M185.08 226.88a.5.5 0 0 1-.32-.88 12.76 12.76 0 0 1 4.19-2.29.49.49 0 0 1 .62.34.5.5 0 0 1-.33.62 11.93 11.93 0 0 0-3.83 2.08.46.46 0 0 1-.33.13z"/></g><path d="M212.16 196.31l-10.35 2.84-.76.21-7.15 2-.87.24-9.2 2.52-.71-3.26-.16-.79-1.66-7.66-.17-.76L178 177.2a30.61 30.61 0 0 1-.94-10.93 14.18 14.18 0 0 1 13.29-12 10.19 10.19 0 0 1 4.11.61 5.57 5.57 0 0 1 .77.3 16.43 16.43 0 0 1 6.45 5.83 8.8 8.8 0 0 1 .42.64c3.5 5.32 5.89 12.76 7.49 19.71.07.28.13.55.19.82.74 3.31 1.3 6.5 1.72 9.26q.1.63.18 1.26c.2 1.29.36 2.53.48 3.61z" class="e"/><g class="h"><path d="M211.5 191.36a6 6 0 0 0-5.45-1.45c-3 .54-5.43-.43-6.39-2.63a3.77 3.77 0 0 1 .78-4.45c2.34-1.8 5.93-1.65 9.34-.73l-.19-.82c-3.5-.88-7.16-.94-9.62.94a4.2 4.2 0 0 0-1.43 3.86 5.63 5.63 0 0 0 .41 1.52c1.12 2.53 3.83 3.68 7.24 3.06a5.34 5.34 0 0 1 5.49 2q-.07-.67-.18-1.3zm-10.81-22.61c-2.12-3.07-.53-5.1 1.41-7.16l-.42-.64c-2.05 2.15-4.12 4.62-1.62 8.23 1.73 2.52 2.16 4.56 1.19 5.61s-3.71.89-6.36-.66c-2.44-1.45-3.23-6.38-2.24-13.92a8.61 8.61 0 0 1 2.2-4.71l.38-.38a5.57 5.57 0 0 0-.77-.3 9.33 9.33 0 0 0-2.57 5.28 32.93 32.93 0 0 0 0 10.2c.43 2 1.24 3.66 2.64 4.49a8.55 8.55 0 0 0 5.68 1.39 3 3 0 0 0 1.63-.88c1.21-1.35.8-3.73-1.15-6.55zm-19.37 23c-1.7-10.11-3.85-19.57-3.87-19.67a.38.38 0 1 0-.74.16c0 .11 2.16 9.51 3.86 19.57.11.35.75.37.75-.06z"/><path d="M178.58 179.5a.36.36 0 0 1-.2-.06l-3.9-2.5a.37.37 0 0 1-.12-.52.38.38 0 0 1 .52-.11l3.9 2.5a.37.37 0 0 1 .12.52.39.39 0 0 1-.32.17z"/></g><path d="M153.3 180.58a5.37 5.37 0 0 1-3.61-1.43c-6.16-5.43-6.14-25.17-6.13-26a.72.72 0 0 1 .72-.72h0a.72.72 0 0 1 .71.72c0 .2 0 19.92 5.65 24.93a3.9 3.9 0 0 0 3.23 1c7.58-1 11-23.09 11.73-31.52a.71.71 0 0 1 .77-.65.72.72 0 0 1 .66.77 122.77 122.77 0 0 1-2.51 15.71c-2.55 10.77-6.07 16.53-10.47 17.11a4.73 4.73 0 0 1-.75.08z" class="X"/><path d="M210.63 364.96h-74.75a3.17 3.17 0 0 1-2.893-4.801 3.17 3.17 0 0 1 2.893-1.529h74.78a3.17 3.17 0 0 1 2.893 4.801 3.17 3.17 0 0 1-2.893 1.529z" class="g"/><g class="j"><path d="M128.97 413.33h-.42a3.17 3.17 0 0 1-2.67-3.58l13.62-101.71a3.17 3.17 0 0 1 3.14-2.75h61a3.17 3.17 0 0 1 3.14 2.76l13.37 101.7a3.17 3.17 0 0 1-4.375 3.457 3.17 3.17 0 0 1-1.905-2.627l-13.05-98.95h-55.46l-13.25 99a3.17 3.17 0 0 1-3.14 2.7z"/><path d="M160.26 308.46h39.62c12.55 0 26-6.87 27.92-19.27a235.1 235.1 0 0 0 2.5-47.39c-.82-16.67-7.29-32.15-20.4-42.48h0s5.66 64.29.56 82.06c-6.82 23.73-50.2 27.08-50.2 27.08zM39 176.05v19a4.55 4.55 0 0 0 4.55 4.55h34.54l10.43 3.74a1.32 1.32 0 0 0 1.68-1.72l-3.94-10.19v-15.38a4.56 4.56 0 0 0-4.56-4.56H43.55a4.56 4.56 0 0 0-4.55 4.56z"/></g><path d="M69 186.1a3.3 3.3 0 1 0 3.3-3.3 3.29 3.29 0 0 0-3.3 3.3zm-10.42 0a3.29 3.29 0 1 0 .96-2.333 3.29 3.29 0 0 0-.96 2.333zm-10.43 0a3.3 3.3 0 1 0 3.29-3.3 3.29 3.29 0 0 0-3.29 3.3z" class="g"/><ellipse cx="620.24" cy="101.29" rx="26.93" ry="26.6" class="Z"/><ellipse cx="620.24" cy="97.83" rx="26.93" ry="26.6" class="a"/><ellipse cx="620.24" cy="97.83" rx="21.9" ry="21.62" class="X"/><path d="M642.14 97.83l-.07 1.71c-1.026-11.291-10.493-19.936-21.83-19.936s-20.804 8.645-21.83 19.936c0-.56-.07-1.13-.07-1.71 0-12.095 9.805-21.9 21.9-21.9s21.9 9.805 21.9 21.9z" class="Z"/><path d="M620.24 100.08a.56.56 0 0 1-.44-.22l-10.74-14.28a.54.54 0 0 1 .11-.76.57.57 0 0 1 .77.12l10.48 13.93 11.91-5.12a.54.54 0 0 1 .72.28.53.53 0 0 1-.28.71l-12.31 5.34a.57.57 0 0 1-.22 0z" class="W"/><rect x="63.75" y="92.19" width="9.67" height="41.24" rx="1.19" class="j"/><g class="g"><rect x="65.21" y="111.4" width="6.73" height="2.82" rx="1.17"/><path d="M63.75 95.52h9.67v1.59h-9.67zm0 3.33h9.67v1.59h-9.67zm0 24.58h9.67v1.59h-9.67zm0 3.33h9.67v1.59h-9.67z"/></g><rect x="44.41" y="92.19" width="9.67" height="41.24" rx=".3" class="a"/><g class="c"><rect x="45.88" y="111.4" width="6.73" height="2.82" rx="1.17"/><path d="M44.41 95.52h9.67v1.59h-9.67zm0 3.33h9.67v1.59h-9.67zm0 24.58h9.67v1.59h-9.67zm0 3.33h9.67v1.59h-9.67z"/></g><rect x="54.08" y="92.19" width="9.67" height="41.24" rx="1.19" class="e"/><g class="h"><rect x="55.55" y="111.4" width="6.73" height="2.82" rx="1.17"/><path d="M54.08 95.52h9.67v1.59h-9.67zm0 3.33h9.67v1.59h-9.67zm0 24.58h9.67v1.59h-9.67zm0 3.33h9.67v1.59h-9.67z"/></g><g transform="matrix(.987248 -.159192 .159192 .987248 -47.86 -26.45)"><rect x="100.64" y="136.97" width="9.67" height="41.24" rx=".3" class="l"/><rect x="102.11" y="156.18" width="6.73" height="2.82" rx=".26" class="i"/></g><path d="M73.838 96.034l9.547-1.539.253 1.57-9.547 1.539zm.537 3.294l9.547-1.539.253 1.57-9.547 1.539zm4.32 24.638l9.573-1.547.254 1.574-9.573 1.547zm.119 2.904l9.547-1.539.253 1.57-9.547 1.539z" class="i"/><path d="M113.99 144.48H26.41l-1.92-5.09h91.68l-2.18 5.09z" class="Z d"/><g class="W"><path d="M24.49 133.34h91.68v6.05H24.49z"/><path d="M33.84 139.39l2.45 5.14h5.77l1.65-5.14h-9.87zm72.99 0l-2.45 5.14H98.6l-1.64-5.14h9.87z"/></g><ellipse cx="545.19" cy="410.66" rx="132.05" ry="7.77" class="Z"/><path d="M596.95 414.3c-41.26-1.45-83.93-7.08-106-83.1-6.57-22.6-2.3-39.71 4.91-52.61a78.65 78.65 0 0 1 5.76-8.8h0l2.3-2.94c16.241-19.696 43.167-26.958 67.11-18.1 13.44 4.9 30.68 12.14 46.05 21.56 30.88 18.93 38.13 40.51 48.22 77.52.87 3.18 1.73 6.75 2.39 10.53.35 2 .64 4.11.84 6.23 2.24 23.65-6.89 51.98-71.58 49.71z" class="W"/><path d="M668.53 364.57a48.49 48.49 0 0 1-5.92 11.49c-7.8 11.18-24.05 24.69-57.13 25.56l-4.31.06a115.3 115.3 0 0 1-34-4.64 83.18 83.18 0 0 1-28.44-15c-14.16-11.45-25.85-28.18-37.85-54.29a75.85 75.85 0 0 1-7.32-31 67.63 67.63 0 0 1 2.32-18.16 78.65 78.65 0 0 1 5.76-8.8 77.49 77.49 0 0 0-1.48 3.71c-4.32 11.85-7.3 30.71 3.07 53.21 21.09 45.77 45.54 73.83 102.21 72.35 32-.84 47.64-13.77 55.1-24.46a45 45 0 0 0 7.18-16.26c.32 2.02.61 4.11.81 6.23z" class="f"/><path d="M609.52 224.28s25.9 35.15 31.81 52.65-8.45 29.94-8.45 29.94l-13.32 5s-13.68-61.81-10.04-87.59z" class="g"/><path d="M607.23 322.75c-11.32 3.75-39 13.59-51 9.61a10.93 10.93 0 0 1-1.43-.58 7.55 7.55 0 0 1-3.1-2.62c-4.71-7.17-9.39-37.26-7.29-54.94a71.24 71.24 0 0 0 .44-7.13c.06-3.71-.07-7.68-.22-11.67-.6-15-3-25.39 3.46-29a74.87 74.87 0 0 1 17.72-7c2.88-.69 7.6-2.14 10.91-2.07l14.32 2.6s12.36 2.07 15.22 4.17 4.31 11.37 9.46 19.86 6.27 17 1.35 26.33c-4.28 8.11-3.53 5-4.09 18.34-.68 16.27 16.36 26.74-5.75 34.1z" class="X"/><path d="M569.21 246.35a89.52 89.52 0 0 1 35.33-.31l.47 13.69s-21.78-2.42-35.49 1.07zm17.83-11.6h-.64c-8.48-.44-16.25-7.92-16.58-8.24a.58.58 0 0 1 0-.82.57.57 0 0 1 .82 0c.08.07 7.79 7.5 15.83 7.91 7.71.41 8.64-7.24 8.67-7.56.036-.32.325-.551.645-.515s.551.325.515.645c-.02.09-1.04 8.58-9.26 8.58zM563 303.32a.5.5 0 0 1-.15-.17.6.6 0 0 1 .2-.83 71.38 71.38 0 0 1 28.55-9.83 52 52 0 0 1 12.58-.13.6.6 0 0 1 .51.68.61.61 0 0 1-.69.51 52.66 52.66 0 0 0-12.31.15 70 70 0 0 0-28 9.66.6.6 0 0 1-.69-.04z" class="d Z"/><path d="M577.42 328.17c-10.19-3.23-19.41-9.73-25.7-15.53-.5-.46-1-.91-1.44-1.36-3.26-3.17-5.56-1.54-6.56-3.36-3.81-7-1.65-34.33 0-44.37s-5.28-28.44-1.55-35 16.57-8.88 16.57-8.88-1.81-2.12 1.64-4.55 12.63-1.42 12.63-1.42c.44 43.45 6.59 83.83 4.41 114.47z" class="j"/><path d="M567.4 315.75a.58.58 0 0 1-.56-.49c-4.64-30.15-.05-86.86 0-87.43a.56.56 0 0 1 .61-.52.57.57 0 0 1 .52.61c-.05.57-4.62 57.15 0 87.17a.57.57 0 0 1-.47.65z" class="X"/><path d="M576.73 320.23a.58.58 0 0 1-.56-.47c-6.07-34.64-6.55-94.39-6.55-95a.56.56 0 0 1 .56-.57h0a.56.56 0 0 1 .57.56c0 .6.49 60.26 6.54 94.8a.57.57 0 0 1-.46.66zm-10.07-95.81a.32.32 0 0 1-.14 0 19.08 19.08 0 0 1-7.87-4.23.57.57 0 0 1 0-.8.56.56 0 0 1 .8 0h0a18.49 18.49 0 0 0 7.37 3.95.56.56 0 1 1-.15 1.11z" class="g"/><path d="M621.57 309.19a31.32 31.32 0 0 1-17.16 18.06c-1.67-33.16-5.48-71-10.39-111.31 0 0 5.17-.91 7.32 2a8.23 8.23 0 0 1 1.13 3.43 26.69 26.69 0 0 1 5.54 1.86c2.89 1.35 2.56 3.2 3.25 7.9s8 12 10.31 21.82-3.9 16.13-5.86 24.39 5.86 31.85 5.86 31.85z" class="j"/><path d="M609.96 314.32a.57.57 0 0 1-.57-.55 559.62 559.62 0 0 0-9.63-85.82.57.57 0 0 1 1.12-.2 563.47 563.47 0 0 1 9.65 86 .57.57 0 0 1-.55.59z" class="X"/><path d="M597.52 225.67a.562.562 0 1 1-.1-1.12s3.68-.67 4.51-3.31a.571.571 0 1 1 1.09.34c-1 3.31-5.23 4.06-5.41 4.09zm11.12 88.65a.57.57 0 0 1-.57-.5l-10.38-86.94a.57.57 0 0 1 1.13-.14l10.38 86.94a.57.57 0 0 1-.49.64z" class="g"/><path d="M575.05 338.2a31.11 31.11 0 0 0 8.54 3.83c23.19 7.38 44.47-4.54 44.47-4.54 1.28-6.35.49-13.57-1.65-16.21a2.33 2.33 0 0 0 .22-2.06l21.35-22.17c-12.14 10.07-27.16 13.36-38.85 20.42h0l-8.62 5.08c-3.39 1.9-7.71 2.09-12 1.5a58.2 58.2 0 0 1-16.17-5.21c0 0-26.59-12-31.58-11.65-3.82.31 17.04 22.09 34.29 31.01z" class="a"/><path d="M616.14 356.75s-6.84-2-9-4.18l-4.7 11.18 16.19 5.05s.25-9.8-2.49-12.05z" class="Y"/><path d="M655.21 389.13l-20.93-46.45a7.15 7.15 0 0 0-2.85.55c-4.06 1.48-9.77 5.56-13.45 7.95a37.38 37.38 0 0 1-1.2.77 14.16 14.16 0 0 1-1.55.86c-3.22 1.46-1.52 3.2-1.52 3.2 6 3 2.35 11.93 6 14 0 0 1.56.91 6.54 3.1s10 7.48 14.63 11.81c6 5.6 9.75 6.25 11.9 5.74a4 4 0 0 0 2.43-1.53z" class="k"/><g class="i"><path d="M655.21 389.13l-20.93-46.45a7.15 7.15 0 0 0-2.85.55l21.37 47.44a4 4 0 0 0 2.41-1.54z"/><path d="M636.42 347.42l-.63-1.38a11.19 11.19 0 0 1-6.31 5.85 14.37 14.37 0 0 1-11.5-.71 37.38 37.38 0 0 1-1.2.77 15.64 15.64 0 0 0 13.1 1.07 12.46 12.46 0 0 0 6.54-5.6z"/></g><path d="M628.65 371.1a.84.84 0 0 0-1.59.49l.59 3.23a.84.84 0 0 0 1 .68.85.85 0 0 0 .68-1l-.59-3.23a.7.7 0 0 0-.09-.17zm-3.71-1.8a.85.85 0 0 0-.92-.48.84.84 0 0 0-.67 1l.58 3.23a.85.85 0 0 0 1 .67.84.84 0 0 0 .68-1l-.59-3.23a.66.66 0 0 0-.08-.19zm6.71 3.94a.85.85 0 0 0-.92-.48.83.83 0 0 0-.67 1l.58 3.22a.84.84 0 1 0 1.65-.3l-.58-3.22zm2.93 2.17a.85.85 0 0 0-.92-.48.84.84 0 0 0-.68 1l.59 3.22a.84.84 0 1 0 1.65-.3l-.58-3.22zm2.92 2.49a.84.84 0 0 0-1.59.5l.59 3.22a.84.84 0 0 0 1 .68.85.85 0 0 0 .68-1l-.59-3.22a.66.66 0 0 0-.09-.18zm2.82 2.85a.83.83 0 0 0-.91-.49.85.85 0 0 0-.68 1l.59 3.23a.84.84 0 0 0 1.65-.3l-.58-3.23a1.07 1.07 0 0 0-.07-.21z" class="X"/><path d="M540.81 307.19s-16.82-9.08-26.57-2.06c-17.82 12.84 12.42 37.53 47 49.59s45.82 10.41 45.82 10.41 7.52-2.06 4.85-14.25c0 0-19.94-7.58-30.31-15.52s-17.43-17.67-40.79-28.17z" class="a"/><g class="c"><path d="M610.59 354.43c-7.26-1.75-22-8.53-39.55-18.14-13.1-7.2-28.2-16.39-30.42-19.58-1.2-1.72-1.5-3.13-.9-4.18.9-1.58 3.5-1.75 4.68-1.73a.51.51 0 0 1 .52.56h0a.52.52 0 0 1-.52.49c-1.17 0-3.19.19-3.76 1.2-.48.84.19 2.13.84 3.06 1.79 2.57 14.43 10.67 30.06 19.25 13.46 7.39 30.85 16 39.29 18z"/><path d="M609.22 349.27c-.81 6.4-2.47 12.22-6.09 16.68 0 0 3.1 2.23 5.92.63 2.17-1.22 6.33-11.22 4.74-16.56-1.8-.99-3.36-1.33-4.57-.75z"/></g><path d="M565.32 355.51s6.88-1.33 8.82-3.69l5.5 10.86-15.82 6.12s-1.06-10.89 1.5-13.29z" class="Y"/><path d="M528.68 391.49l17.78-47.74a7 7 0 0 1 2.88.36c4.15 1.2 10.12 4.89 13.95 7 .44.26.86.49 1.24.69a17.26 17.26 0 0 0 1.61.76c3.32 1.23 1.94 2.17 1.94 2.17-6.54 3.06-1.75 13-5.27 15.3 0 0-1.5 1-6.32 3.53s-9.48 8.12-13.82 12.76c-5.59 6-9.3 6.89-11.48 6.52a4 4 0 0 1-2.51-1.35z" class="k"/><g class="i"><path d="M528.68 391.49l17.78-47.74a7 7 0 0 1 2.88.36l-18.15 48.76a4 4 0 0 1-2.51-1.38z"/><path d="M544.64 348.62l.53-1.42a11.15 11.15 0 0 0 6.69 5.41 14.36 14.36 0 0 0 11.43-1.47l1.24.69a15.61 15.61 0 0 1-13 1.94 12.43 12.43 0 0 1-6.89-5.15z"/></g><path d="M553.97 371.75a.82.82 0 0 1 .88-.54.84.84 0 0 1 .74.93l-.37 3.25a.84.84 0 1 1-1.67-.19l.37-3.25a1.17 1.17 0 0 1 .05-.2zm3.59-2.06a.84.84 0 0 1 1.62.39l-.37 3.25a.84.84 0 0 1-1.67-.18l.37-3.26a1.17 1.17 0 0 1 .05-.2zm-6.43 4.37a.84.84 0 0 1 1.62.39l-.37 3.3a.84.84 0 1 1-1.67-.19l.37-3.26a.73.73 0 0 1 .05-.24zm-2.78 2.37a.82.82 0 0 1 .88-.54.84.84 0 0 1 .74.93l-.37 3.25a.84.84 0 0 1-1.67-.19l.37-3.25a1.17 1.17 0 0 1 .05-.2zm-2.75 2.67a.84.84 0 0 1 1.62.39l-.34 3.26a.84.84 0 1 1-1.67-.19l.37-3.26a1.46 1.46 0 0 1 .02-.2zm-2.63 3.04a.84.84 0 0 1 1.62.39l-.37 3.26a.84.84 0 1 1-1.67-.19l.37-3.26a1.17 1.17 0 0 1 .05-.2z" class="X"/><path d="M641.13 299.82s15.93-10.59 26.28-4.49c18.92 11.14-8.93 38.51-42.27 53.69s-44.68 14.57-44.68 14.57-7.68-1.37-6.14-13.74c0 0 19.16-9.38 28.77-18.24s15.79-19.2 38.04-31.79z" class="a"/><g class="c"><path d="M612.01 354.75l-5.63 1.82c-7.46 2.34-16 4.8-23.69 6.7v1.1c7-1.7 15.14-4 24-6.8l5.28-1.71zm-36.02-1.5c7.06-2.4 21.16-10.51 37.72-21.69 12.38-8.36 26.58-18.9 28.49-22.28 1-1.83 1.21-3.26.51-4.25-1-1.49-3.64-1.42-4.82-1.3a.53.53 0 0 0-.47.61h0a.53.53 0 0 0 .57.44c1.16-.11 3.19-.1 3.86.85.55.79 0 2.14-.57 3.13-1.54 2.72-13.39 11.95-28.16 21.93-12.73 8.59-29.25 18.77-37.47 21.57z"/><path d="M576.88 347.99c1.4 6.3 3.59 11.94 7.6 16.05 0 0-2.88 2.51-5.84 1.18-2.27-1-7.33-10.6-6.24-16.06 1.7-1.15 3.22-1.64 4.48-1.17z"/></g><path d="M574.72 297.47l-1.28 18.28s-21.72-3.1-32.39-5.82a44.21 44.21 0 0 1-9.79-3.5c-5.88-3.13-10.77-8.58-10.41-19.2a49.37 49.37 0 0 1 2.11-11.93 247.14 247.14 0 0 1 20.76-48.81c16.73 7.16 15.33 19.08 15.33 19.08l-15.33 39.84c6.16 7.47 31 12.06 31 12.06z" class="j"/><g class="g"><path d="M543.72 285.97a.55.55 0 0 1-.3-.09c-1.84-1.14-6.88-2.32-6.93-2.34a.57.57 0 0 1 .26-1.1 44.73 44.73 0 0 1 6 1.86 10.16 10.16 0 0 0-1.67-2.45.57.57 0 1 1 .85-.75 8.7 8.7 0 0 1 2.31 4.21.56.56 0 0 1-.24.56.55.55 0 0 1-.28.1zm-12.46 20.45c-5.88-3.13-10.77-8.58-10.41-19.2 4.67 2.44 12.8 8.35 10.41 19.2z"/><path d="M561.06 294.67a.39.39 0 0 1-.15 0 44.64 44.64 0 0 1-17.57-8.83.56.56 0 0 1-.12-.68c7.67-15.09 12.53-27.07 15.28-37.71a.57.57 0 0 1 .97-.287.57.57 0 0 1 .13.577c-2.75 10.62-7.57 22.56-15.17 37.54a45.26 45.26 0 0 0 16.77 8.29.59.59 0 0 1 .41.7.58.58 0 0 1-.55.4z"/><path d="M556.75 255.9a.61.61 0 0 1-.36-.13.58.58 0 0 1-.09-.8l4-5a.57.57 0 0 1 .89.71l-4 5a.57.57 0 0 1-.44.22z"/></g><g class="W"><path d="M575.35 209.84l19.3 2.76c12.54-1.25 16.53-6.23 18.58-16.77a28.6 28.6 0 0 0-.66-13.46c-.27-4-1.17-7.38-3-9.64-8.47-10.21-15.93-9.81-15.93-9.81-3.79-1.74-16.32-2.93-24.58 7.09h0c-.26.22-5.3 5.55-6.46 16.76-1.15 10.69 5.98 24.33 12.75 23.07z"/><path d="M586.13 165.75s2-17.8-13.79-15.54c-10.32 1.47-16.71 15.46-7.27 21.81s21.06-6.27 21.06-6.27z"/></g><path d="M566.65 173.82a.44.44 0 0 1-.24-.07.48.48 0 0 1-.19-.67 22.78 22.78 0 0 1 12.66-10.89 20.48 20.48 0 0 1 7.33-1.23.5.5 0 0 1-.06 1 21.64 21.64 0 0 0-19 11.6.51.51 0 0 1-.5.26z" class="k"/><path d="M576.88 205.83s-12.31-6.89-9.89-21.23 11.86-23 26.33-18.81c-.02-.04-1.44 41.45-16.44 40.04zm34.22-26.37s1.26 12.31-1 14.09-4.44-3.08-4.44-3.08 3.07-10.87 5.44-11.01z" class="W"/><path d="M605.43 194.67s3.67-3.23 4.89.73-1.25 11.21-5.82 9.29z" class="b"/><path d="M609.95 203.75a8.29 8.29 0 0 1-1.67 1.19c-2.3 1.24-5.32 1.39-8.93-.52 0 0-4.63-6 2.21-16.63 0 0 6.27-1.65 9.86 2.14a7.86 7.86 0 0 1 1.07 1.46 8.15 8.15 0 0 1 .53 1.11c1.27 3.25.09 8.42-3.07 11.25z" class="a"/><path d="M609.78 188.68a50 50 0 0 0 .77-5.12.77.77 0 0 1-.27.07 1.72 1.72 0 0 1-1.15-.41l-.69 4.84z" class="X"/><path d="M609.95 203.75a8.29 8.29 0 0 1-1.67 1.19 31.49 31.49 0 0 0 3.14-15 7.86 7.86 0 0 1 1.07 1.46 32.37 32.37 0 0 1-2.54 12.35z" class="c"/><path d="M594.73 212.43l-1.52 10.18s-6.23 8-20.65-5c1.64-4.15 4.15-9.47 3.51-13.55a22.25 22.25 0 0 0 2.87 2.11l1.19.75c3.75 2.23 9.47 5.15 14.6 5.51z" class="Y"/><path d="M594.73 212.43l-.71 4.76c-4.21-1.61-11.49-5.12-15.08-11.06l1.19.75c3.75 2.27 9.47 5.19 14.6 5.55z" class="W"/><path d="M608.56 195.12l-.47 3c-1.16 7-2.22 10.8-4.17 12.3-9.87 7.57-27.27-5.81-27.83-6.24h0a66.55 66.55 0 0 1-.13-2.42 62.64 62.64 0 0 1 2.14-18.58 14.16 14.16 0 0 1 11.16-12.57c6.29-1.29 11.25 2.13 14.32 3.6 4.63 2.22 6.75 9 5.44 17.89q-.23 1.57-.46 3.02z" class="Y"/><path d="M599.74 203.3c-5.52 0-7.73-5.28-7.75-5.34a.49.49 0 0 1 .27-.65.51.51 0 0 1 .66.27h0c.09.24 2.41 5.72 8.43 4.56a.49.49 0 0 1 .59.39.5.5 0 0 1-.4.59 9.79 9.79 0 0 1-1.8.18zm-4.25-19.06a1.38 1.38 0 0 0-.37-2.68c-2.55-.16-6.64-.1-7 2-.5 3 4.27 1.76 7.27.75zm7.53.89a1.38 1.38 0 0 1 1.41-2.31c2.41.88 6.13 2.59 5.61 4.61-.75 3-4.6-.11-6.95-2.24z" class="W"/><path d="M595.67 205.75a4.38 4.38 0 0 0 1.92.05.33.33 0 0 0 .24-.4.33.33 0 0 0-.4-.25h0a3.57 3.57 0 0 1-2.91-.73.34.34 0 0 0-.45.5 3.85 3.85 0 0 0 1.6.83z" class="b"/><path d="M599.13 198.9a.35.35 0 0 1-.18-.21.36.36 0 0 1 .23-.46l2.41-.79-1.43-1.45a.38.38 0 0 1-.11-.3l.45-4a.36.36 0 0 1 .4-.32.37.37 0 0 1 .33.41l-.43 3.81 1.73 1.74a.36.36 0 0 1 .09.34.37.37 0 0 1-.24.27l-3 1a.31.31 0 0 1-.25-.04z" class="W"/><g class="b"><path d="M592.88 195.09c-.13.83-1.93 1.25-4 .93s-3.71-1.23-3.59-2.06 1.93-1.25 4-.93 3.72 1.23 3.59 2.06z"/><path d="M608.56 196.09l-.47 3c-1.92-.36-3.33-1.23-3.22-2s1.74-1.22 3.69-1z" class="d"/></g><path d="M594.94 192.13c-.17 1.13-.82 2-1.46 1.88s-1-1.09-.85-2.22.83-2 1.46-1.89 1.02 1.09.85 2.23zm11.24 1.67c-.16 1.14-.82 2-1.45 1.89s-1-1.09-.85-2.23.82-2 1.46-1.89 1.01 1.1.84 2.23zm-25.7 6.3c-.08.11-2.09 3.36-4.39 4.06h0 0l-.13-2.42a8.86 8.86 0 0 0 4.52-1.64z" class="W"/><path d="M579.57 191.89s-3.64-6.78-7.68-2.48c-3.33 3.55.27 14.84 6.4 11.82z" class="Y"/><g class="W"><path d="M577.82 199.38a.47.47 0 0 1-.4-.49 7.89 7.89 0 0 0-3.61-7 .48.48 0 0 1 .48-.82 8.82 8.82 0 0 1 4.07 7.83.47.47 0 0 1-.49.45z"/><path d="M573.88 195.89a.49.49 0 0 1-.34-.22.47.47 0 0 1 .17-.65c.21-.12 2.08-1.2 3.43-.63a.47.47 0 0 1 .25.62.47.47 0 0 1-.62.25c-.77-.32-2.16.32-2.58.57a.44.44 0 0 1-.31.06z"/></g><g class="X"><path d="M590.88 198.1a6.91 6.91 0 0 1 4.92-12.915 6.91 6.91 0 0 1 4 8.915 6.92 6.92 0 0 1-8.92 4zm4.57-12a5.9 5.9 0 0 0-4.206 11.025 5.9 5.9 0 0 0 7.616-3.405 5.91 5.91 0 0 0-3.45-7.59z"/><path d="M587.07 190.1a.58.58 0 0 1-.19 0 10.24 10.24 0 0 0-7.28-.4c-.168.064-.357.034-.497-.079s-.208-.292-.18-.47a.5.5 0 0 1 .317-.391 11.13 11.13 0 0 1 8.06.42.49.49 0 0 1 .25.67.5.5 0 0 1-.48.25zm19.06 9.73a6.91 6.91 0 1 1 8.93-4 6.92 6.92 0 0 1-8.93 4zm4.57-12a5.9 5.9 0 1 0 3.41 7.62 5.91 5.91 0 0 0-3.41-7.59z"/><path d="M599.44 191.18a.41.41 0 0 1-.19-.18.5.5 0 0 1 .15-.69 3.11 3.11 0 0 1 3.5.27c.143.109.217.286.194.464s-.139.331-.305.4-.356.045-.499-.064a2.14 2.14 0 0 0-2.35-.22.5.5 0 0 1-.5.02z"/></g><g class="W"><path d="M603.14 167.96a16.57 16.57 0 0 1 9 9.75c.93 2.73 1.7 6.34-2.14 5.87-10.52-1.27-16.12-12.14-16.12-12.14s-2 10-10.27 8.79-8-7.43-3.3-10.94c3.81-2.86 13.57-5.54 22.83-1.33z"/><path d="M583.88 179.08s-4.68 5-3 10.44 1.79 9.75 0 12.66a33.2 33.2 0 0 0-2.54-10c-1.71-3.55-3.31-6.25-2.07-10.34.92-2.83 2.98-5.52 7.61-2.76z"/></g><path d="M576.31 203.62c-3.63.88-6.44.37-8.52-.93a9.07 9.07 0 0 1-.94-.69c-4.36-3.64-4.68-11.22-2-14.93a8.52 8.52 0 0 1 3.17-2.75 6.63 6.63 0 0 1 1-.43c4.51-1.48 9.4 1.22 9.4 1.22 5.16 14.08-2.11 18.51-2.11 18.51z" class="a"/><path d="M589.08 209.75a23.5 23.5 0 0 1-15.33-10.18.61.61 0 0 1 .23-.84.63.63 0 0 1 .84.23 23.22 23.22 0 0 0 18.44 10.08.62.62 0 0 1-.07 1.23 28.45 28.45 0 0 1-4.11-.52z" class="X"/><path d="M596.64 210.14a2 2 0 0 1-3.635.733 2 2 0 0 1 2.105-3.053 2 2 0 0 1 1.53 2.32z" fill="#243434"/><path d="M567.79 202.69a9.07 9.07 0 0 1-.94-.69 25.22 25.22 0 0 0 1.16-17.68 6.63 6.63 0 0 1 1-.43 26.48 26.48 0 0 1-1.22 18.8z" class="c"/><path d="M610.88 174.86a16.52 16.52 0 0 0-2.37-3.33 15.41 15.41 0 0 0-1.51-3.36c-2.22-3.52-5.73-5.67-10.45-6.4-5.09-.79-9.51.21-13.13 3a18.28 18.28 0 0 0-3 2.94 26 26 0 0 0-3.11 4.86 40.23 40.23 0 0 0-3.63 11.92l-1.39-.15c.06-.57 1.63-14.05 10.3-20.69 3.93-3 8.71-4.11 14.2-3.26 5.13.8 9 3.17 11.42 7.05a20.25 20.25 0 0 1 2.67 7.42z" class="X"/><g class="W"><path d="M558.1 328.75l-4.84-9.2a3.43 3.43 0 0 1 3.07-5l76 .82-2.24 11.78z"/><path d="M628.8 326.17h-68a2.61 2.61 0 0 1-2.64-3l4.64-42a3.4 3.4 0 0 1 3.3-3h68a2.61 2.61 0 0 1 2.65 3l-4.64 42a3.4 3.4 0 0 1-3.31 3z"/></g><path d="M559.75 327.98h-.07a.57.57 0 0 1-.5-.64l5.64-45a.58.58 0 0 1 .65-.5.57.57 0 0 1 .49.64l-5.64 45a.58.58 0 0 1-.57.5z" fill="#564c54"/><path d="M592.88 302.93a6 6 0 0 0 5.55 6.49 6.18 6.18 0 0 0 6.5-5.73 6 6 0 0 0-5.56-6.49 6.17 6.17 0 0 0-6.49 5.73z" class="f"/><path d="M629.13 329.83h-69a2.5 2.5 0 0 1-2.48-2.84l.66-4.81h74l-.74 5.49a2.5 2.5 0 0 1-2.44 2.16z" class="W"/><path d="M579.14 316.26l-.49 2.4h2.23l-.25 2.86H578l-.55 2.61h-3l.55-2.61h-1.86l-.55 2.61h-3l.55-2.61h-2.26l.25-2.85h2.63l.5-2.4h-2.27l.25-2.86h2.64l.55-2.6h3l-.55 2.6h1.86l.55-2.61h3l-.56 2.61h2.28l-.26 2.85zm-3 0h-1.86l-.5 2.4h1.86z" class="k"/><g class="e"><path d="M647.88 249.82a18.77 18.77 0 0 0 32.046 13.269 18.77 18.77 0 0 0-13.286-32.039 18.76 18.76 0 0 0-18.76 18.77z"/><path d="M657.05 265.17l-10.09 2.13 4.37-8.69 5.72 6.56z"/></g><path d="M668.24 245.75c0-.88-.85-1.33-1.9-1.33a3.34 3.34 0 0 0-3 1.92l-5-2.52c1.45-2.72 4.31-4.59 8.85-4.59s7.77 1.87 7.77 5.41c0 4.34-4.54 5.11-4.54 7.29h-5.84c0-3.39 3.66-4.41 3.66-6.18zm-4.48 10.66a3.77 3.77 0 0 1 7.49 0 3.76 3.76 0 0 1-7.49 0z" class="X"/><path d="M461.34 356.47s-7.66-12-26.28-23c-13.18-7.72-20.81-29.56-20.81-29.56s25.19 1.09 36.14 16.42 10.95 36.14 10.95 36.14z" class="a"/><path d="M461.43 356.8a.38.38 0 0 1-.37-.28 64 64 0 0 0-17.18-28.84 63.1 63.1 0 0 0-12-9.43.36.36 0 0 1-.14-.51.37.37 0 0 1 .51-.14 67.43 67.43 0 0 1 29.55 38.73.37.37 0 0 1-.27.45z" class="W"/><path d="M458.04 356.2s-2.19-4.38-12.05-3.29-15.33 6.57-32.85-3.28c0 0 13.14-10.95 27.38-8.76s15.36 7.66 17.52 15.33z" class="a"/><path d="M458.09 356.57a.37.37 0 0 1-.32-.17c0-.07-4.45-7-11.54-8.29-12.39-2.25-20.83 1.71-20.91 1.75-.185.091-.409.015-.5-.17s-.015-.409.17-.5c.09-.05 8.73-4.11 21.37-1.82 7.42 1.35 11.86 8.33 12 8.63a.38.38 0 0 1-.12.52.37.37 0 0 1-.15.05z" class="W"/><path d="M462.34 355.14s-.86-4.82 7.7-9.83 16.23-3.89 24.39-22.26c0 0-17.08-.93-27.19 9.33s-7.72 15.3-4.9 22.76z" class="a"/><path d="M462.3 355.54a.37.37 0 0 1-.37-.34c0-.35-.64-8.6 4.51-14.11 8.77-9.4 18.13-11.29 18.22-11.31a.38.38 0 0 1 .473.502.38.38 0 0 1-.333.238c-.09 0-9.22 1.87-17.81 11.08-4.92 5.27-4.32 13.46-4.31 13.54a.36.36 0 0 1-.34.4z" class="W"/><g class="e"><rect x="445.85" y="354.86" width="29.15" height="6.23" rx="2.57"/><path d="M460.54 414.75c-19.59 0-32.05-3.12-30-16.91 1.27-8.75 8.09-17.33 12.91-22.43l1.9-1.93c1.78-1.77 3-2.79 3-2.79l.05-.31.34-1.94.4-2.23.9-5.09.31-1.78 10.24-.44 10.68.44.24 1.78.38 2.8.62 4.52.27 1.94v.31s1.21 1 3 2.79c.58.57 1.22 1.22 1.9 1.93 4.82 5.1 11.64 13.68 12.92 22.43 1.98 13.76-10.48 16.91-30.06 16.91z"/></g><path d="M472.73 370.35h-24.38l.34-1.94h23.78l.26 1.94zm4.93 5.03h-34.25l1.9-1.93h30.45l1.9 1.93zm-5.81-11.49l-22.76 2.29.9-5.09h21.47l.39 2.8z" class="h"/><g class="X"><rect x="249.1" y="222.8" width="12.56" height="9.69" rx="1.66"/><path d="M265.31 222.8v9.69l-3.92-3.29v-3.11l3.92-3.29z"/></g><circle cx="282.17" cy="227.65" r="8.07" fill="#dd615c"/><g class="X"><path d="M278.36 232.3a.82.82 0 0 0 .6-.25l7.61-7.61a.85.85 0 0 0-1.2-1.2l-7.61 7.61a.85.85 0 0 0 0 1.2.83.83 0 0 0 .6.25z"/><path d="M285.97 232.3a.82.82 0 0 0 .6-.25.85.85 0 0 0 0-1.2l-7.61-7.61a.85.85 0 0 0-1.2 1.2l7.61 7.61a.85.85 0 0 0 .6.25z"/><rect x="258.76" y="265.41" width="4.44" height="11.57" rx="1.83" transform="matrix(-1 0 0 -1 497.84 497.15)"/><rect x="260.53" y="274.3" width=".91" height="5.43" rx=".38" transform="matrix(-1 0 0 -1 497.84 508.78)"/><rect x="256.52" y="278.24" width="8.92" height="1.91" rx=".79" transform="matrix(-1 0 0 -1 497.84 513.14)"/></g><path d="M201.77 198.75a9.28 9.28 0 0 0-8.22-8.06 32.41 32.41 0 0 0-10.2.19 9.68 9.68 0 0 0-2.22.78l.17.76c2.33-1.24 6.51-1.59 12.16-1a8.72 8.72 0 0 1 4.76 2.09 8.45 8.45 0 0 1 2.63 4.37 7.09 7.09 0 0 1 .16.94 5.46 5.46 0 0 1 0 .56l.76-.21c.03-.18.01-.31 0-.42zm-17.13.29a12.44 12.44 0 0 1-1.68 1l.16.79a15.1 15.1 0 0 0 2-1.2c3.24-2.34 5.37-.4 7.64 1.66l.3.28.87-.24-.66-.6c-2.3-2.08-4.89-4.43-8.63-1.74z" class="h"/><defs ><path id="B" d="M365.05 111.2a1.34 1.34 0 0 1-2.288.948 1.34 1.34 0 0 1 .948-2.288 1.34 1.34 0 0 1 1.34 1.34z"/></defs></svg>