<svg xmlns="http://www.w3.org/2000/svg" xmlns:xlink="http://www.w3.org/1999/xlink" viewBox="0 0 674 421.75" xmlns:v="https://vecta.io/nano"><style><![CDATA[.U{fill:#39393b}.V{fill:#ea9b7a}.W{fill:#fff}.X{fill:#d96c63}.Y{fill:#faaf3a}.Z{fill:#585859}.a{fill:#ced3e6}.b{fill:#df615c}.c{fill:#c77e2e}.d{fill:#084fc7}.e{fill:#0875f7}.f{fill:#21b573}]]></style><defs><clipPath id="A" transform="translate(-41.82 -50.25)"><path d="M342.21 267.49l-1.31 4V156.38 72.43h258.87v195z" fill="none"/></clipPath><path id="B" d="M219.61 396.43a.81.81 0 0 1-.19-1.6l3.08-.76a.81.81 0 0 1 1.011 1.012.81.81 0 0 1-.621.558l-3.08.77a.68.68 0 0 1-.2.02z"/></defs><g opacity=".8" class="a"><path d="M343.07 123.19a145.5 145.5 0 0 1-66.32-28.1c-29.29-22.11-90.59-59.73-149.07-41-80.65 25.85-81 100.62-60 141.24s170 159.56 363.14 140.64c172.82-16.93 206.5-210.79 114.36-245.87-80-30.43-107.26 47.1-202.11 33.09z" opacity=".5"/><ellipse cx="591.88" cy="94.5" rx="7.49" ry="8.07" opacity=".5"/><path d="M102.6 41.36a4.87 4.87 0 0 1 5.44 3c1.38 3.74-2.24 7.93-7.1 6h0c-4.2-3.01-2.38-8.25 1.66-9z"/><circle cx="613.24" cy="72.65" r="9.76" transform="matrix(.160743 -.986996 .986996 .160743 401.18 616)"/><path d="M132.18 33.67a9.87 9.87 0 0 1-14.342 11.268 9.87 9.87 0 0 1 2.182-18.108 9.85 9.85 0 0 1 12.16 6.84z" opacity=".8"/><path d="M522.39 327.48a4.85 4.85 0 0 1 5.91 2c2 3.42-.72 8.21-5.85 7.27h0c-4.71-2.3-3.89-7.79-.06-9.27zm27.65-13.07c2.419 4.878.426 10.793-4.451 13.213a9.86 9.86 0 0 1-13.214-4.448c-2.421-4.877-.431-10.793 4.445-13.215a9.87 9.87 0 0 1 13.22 4.45z"/><circle cx="553.03" cy="7.46" r="6.01"/></g><g class="a"><path d="M575.03 116.26c0-53.65-44.68-112.44-100.27-116l-3-.17c-79.71-3.71-85.78 93.5-157.89 104.47s-127.19-44.39-213.48-8.28c-77.45 32.47-98.44 214.69 129.26 222 182.18 5.85 345.41-41.95 345.38-202.02z" opacity=".8"/><ellipse cx="432.17" cy="374.23" rx="175.71" ry="9.06"/><path d="M551.18 348.86h-24.34v25.32h28.47v-21.2a4.11 4.11 0 0 0-4.13-4.12zm-154.6-54.26h84.52v54.26h-84.52z"/></g><g class="W"><path d="M328.48 348.86H529.8a15.92 15.92 0 0 1 15.92 15.92v9.4a0 0 0 0 1 0 0H312.56a0 0 0 0 1 0 0v-9.4a15.92 15.92 0 0 1 15.92-15.92z"/><path d="M386.23 294.6h84.52v54.26h-84.52z"/></g><g class="a"><path d="M386.23 311.26l84.52-6.77.01-9.89h-84.42l-.11 16.66z"/><rect x="237.29" y="59.24" width="383.46" height="235.37" rx="11.29"/></g><path d="M620.76 70.53v197h-34.91V59.24h23.62c6.233.006 11.284 5.057 11.29 11.29z" class="Z"/><path d="M606.4 70.53v212.79a11.28 11.28 0 0 1-11.29 11.29H248.59a11.28 11.28 0 0 1-11.29-11.29V70.53a11.29 11.29 0 0 1 11.29-11.29h347 .37 0 .26.44l.28.05h.14.27a11.3 11.3 0 0 1 9.05 11.24z" class="W"/><path d="M597.38 59.47h-.27-.14l-.28-.05h-.44-.26 0-.37-347a11.29 11.29 0 0 0-11.29 11.29v197h369.1v-197a11.3 11.3 0 0 0-9.05-11.24zm-5.62 188.43a3.06 3.06 0 0 1-3.07 3.07H255.01a3.06 3.06 0 0 1-3.07-3.07V76.95a3.06 3.06 0 0 1 3.07-3.07h333.68a3.06 3.06 0 0 1 3.07 3.07z" class="U"/><rect x="251.93" y="73.88" width="339.82" height="177.09" rx="3.07" class="a"/><path d="M591.76 76.95v16.13H251.94V76.95a3.06 3.06 0 0 1 3.07-3.07h333.68a3.06 3.06 0 0 1 3.07 3.07z" class="W"/><path d="M565.44 83.22a2.61 2.61 0 0 1-4.452 1.859 2.61 2.61 0 0 1 1.842-4.459 2.61 2.61 0 0 1 2.61 2.6z" class="b"/><circle cx="571.28" cy="83.22" r="2.61" fill="#5392f3"/><rect x="281.61" y="80.46" width="270.34" height="5.52" rx="2.43" fill="#d2dcec"/><path d="M264.18 83.22v2.53a.47.47 0 0 1-.71.41l-2.21-1.28-2.21-1.28a.47.47 0 0 1 0-.81l2.21-1.28 2.21-1.28a.47.47 0 0 1 .71.41zm3.92 0v2.53a.47.47 0 0 0 .7.41l2.21-1.28 2.21-1.28a.46.46 0 0 0 0-.81l-2.21-1.28-2.21-1.28a.47.47 0 0 0-.7.41z"/><g transform="matrix(.707107 -.707107 .707107 .707107 45.86 428.21)" class="U"><rect x="618.26" y="132.64" width="6.27" height="1.47" rx=".65"/><rect x="620.65" y="130.25" width="1.47" height="6.27" rx=".65"/></g><rect x="290.35" y="96.98" width="262.09" height="147.12" rx="6.42" class="W"/><g class="a"><path d="M366.18 172.25h-57.43a1.6 1.6 0 0 1-1.6-1.59h0a1.6 1.6 0 0 1 1.6-1.6h57.43a1.6 1.6 0 0 1 1.6 1.6h0a1.6 1.6 0 0 1-1.6 1.59zm0-13.5h-57.43a1.6 1.6 0 0 1-1.6-1.6h0a1.6 1.6 0 0 1 1.6-1.6h57.43a1.6 1.6 0 0 1 1.6 1.6h0a1.6 1.6 0 0 1-1.6 1.6zm0 27h-57.43a1.6 1.6 0 0 1-1.6-1.6h0a1.6 1.6 0 0 1 1.6-1.59h57.43a1.6 1.6 0 0 1 1.6 1.59h0a1.6 1.6 0 0 1-1.6 1.6zm176.59-13.5h-57.46a1.59 1.59 0 0 1-1.59-1.59h0a1.59 1.59 0 0 1 1.59-1.6h57.46a1.59 1.59 0 0 1 1.6 1.6h0a1.59 1.59 0 0 1-1.6 1.59z"/><path d="M542.77 158.75h-57.46a1.6 1.6 0 0 1-1.59-1.6h0a1.6 1.6 0 0 1 1.59-1.6h57.46a1.6 1.6 0 0 1 1.6 1.6h0a1.6 1.6 0 0 1-1.6 1.6zm0 27h-57.46a1.6 1.6 0 0 1-1.59-1.6h0a1.59 1.59 0 0 1 1.59-1.59h57.46a1.59 1.59 0 0 1 1.6 1.59h0a1.6 1.6 0 0 1-1.6 1.6z"/></g><path d="M290.35 221.25h262.09v21.5a1.36 1.36 0 0 1-1.36 1.36H291.71a1.36 1.36 0 0 1-1.36-1.36z" class="U"/><g class="W"><path d="M526.7 229.75v-2h2.42v-1.72h-3.29a.86.86 0 0 0-.86.86v2.86zm0 3.41h-1.73v2.95a.87.87 0 0 0 .86.86h3.29v-1.72h-2.42zm7.48-3.41h1.73v-2.8a.86.86 0 0 0-.86-.86h-3.16v1.66h2.29zm0 3.41v2.09h-2.29v1.72h3.16a.87.87 0 0 0 .86-.86v-2.95zm-228.57-1.28v-5.44l4.72 2.72 4.71 2.72-4.71 2.73-4.72 2.72v-5.45z"/><rect x="329.67" y="226.99" width="2.92" height="9.91" rx=".84"/><rect x="335.77" y="226.99" width="2.92" height="9.91" rx=".84"/></g><path d="M290.35 216.95h262.09v4.3H290.35z" class="a"/><path d="M290.35 216.95h134.48v4.3H290.35z" class="b"/><path d="M510.53 200.24h3v6.51h4v2.3h-6.92zm7.73 0h3v8.77h-3zm13.75 0l-3.7 8.77h-2.91l-3.71-8.77h3.18l2.1 5.12 2.14-5.12zm7.58 6.51v2.23h-7.29v-8.77h7.13v2.23h-4.25v1h3.71v2.13h-3.71v1.18z" class="U"/><path d="M505.66 204.55a3.61 3.61 0 0 1-6.166 2.549 3.61 3.61 0 0 1 2.566-6.159 3.61 3.61 0 0 1 3.6 3.61z" class="b"/><path d="M322.36 206.99c0 2-1.9 3.3-4.62 3.3s-4.62-1.3-4.62-3.3a2.69 2.69 0 0 1 1.38-2.37 2.51 2.51 0 0 1-1-2c0-1.87 1.75-3.08 4.25-3.08s4.26 1.21 4.26 3.08a2.52 2.52 0 0 1-1 2 2.69 2.69 0 0 1 1.35 2.37zm-3.49-.12a1.13 1.13 0 1 0-1.13 1.08 1 1 0 0 0 1.13-1.08zm-1.95-4.12a.83.83 0 1 0 1.65 0 .83.83 0 1 0-1.65 0zm6.09 2.15c0-3.41 1.94-5.39 4.67-5.39s4.66 2 4.66 5.39-1.94 5.39-4.66 5.39-4.67-1.97-4.67-5.39zm5.84 0c0-2-.5-2.61-1.17-2.61s-1.18.62-1.18 2.61.5 2.61 1.18 2.61 1.17-.62 1.17-2.61z" class="U"/><path d="M307.08 202.01a3.17 3.17 0 1 1-3.17-3.17 3.16 3.16 0 0 1 3.17 3.17zm2.75 8.01h-11.84a6.13 6.13 0 0 1 5.83-3.76h.18a6.12 6.12 0 0 1 5.83 3.76z" class="b"/><g clip-path="url(#A)"><path d="M340.3 130.49s-1.58 9.67-8.7 11.4c-5.74 1.39-11.16-4.13-13-6.3-.45-.52-.69-.85-.69-.85a9 9 0 0 1-1.07 0c-1.5 0-4.16-.33-5.2-2.17-1.49-2.63 3.92-4.42 3.92-4.42s-2.77-2.48-2.08-4.28 4.4-2.14 4.4-2.14-4-2.6-2.66-4.86c2-3.41 6.16.34 6.49.54-.26-.3-5.45-5.67-2.61-6.63 2.48-.84 6.55 1.94 9.23 4.71a26.73 26.73 0 0 1 .67.69l.44-.31c1.34-.9 5.46-3.3 8.08-1.11 3.14 2.69 2.78 15.73 2.78 15.73z" class="V"/><g class="X"><path d="M332.88 136.43a.61.61 0 0 1-.57 0 .58.58 0 0 1-.15-.79 5.05 5.05 0 0 0 .86-4.23c-.94-3.61-5.78-6.12-5.83-6.14a.57.57 0 0 1 .52-1c.22.11 5.34 2.77 6.4 6.87a6.14 6.14 0 0 1-1 5.14.69.69 0 0 1-.23.15z"/><path d="M327.94 122.5a1.75 1.75 0 0 1-.8 1.54 1.82 1.82 0 0 1-.37.18 3.58 3.58 0 0 1-1 .23 4.83 4.83 0 0 1 .72.59 2 2 0 0 1 .44.67 1.47 1.47 0 0 1-.25 1.42c-.91 1.2-3 1.7-4.71 1.9a6 6 0 0 1 2.64 2.67 1.77 1.77 0 0 1-.22 1.72 3.39 3.39 0 0 1-1.23.9 18.6 18.6 0 0 1-4.58 1.27l-.69-.85a9 9 0 0 1-1.07 0 .5.5 0 0 1 .29-.12c2.09-.25 5.67-1 6.38-1.91a.65.65 0 0 0 .05-.67c-.38-1.08-2.41-2.51-4.17-2.94a.57.57 0 0 1-.43-.62.56.56 0 0 1 .57-.49c1.4 0 5.24-.21 6.26-1.58.15-.2.11-.3.09-.36a1.9 1.9 0 0 0-.86-.78 13.85 13.85 0 0 0-3.34-1.26.56.56 0 0 1-.29-.17.58.58 0 0 1-.13-.51.58.58 0 0 1 .69-.42l1.1.31a12.67 12.67 0 0 0 2.55.09 2.21 2.21 0 0 0 1-.26.64.64 0 0 0 .28-.6 3.52 3.52 0 0 0-.68-1.7.56.56 0 0 1 .05-.64h0a.55.55 0 0 1 .91.06 4.76 4.76 0 0 1 .8 2.33z"/></g><g class="U"><path d="M323.8 111.93a15.34 15.34 0 0 1 2.64 1.94l1.86 1.66h0l-10.85-46.06a.561.561 0 0 0-1.1.22l7.45 42.24zm9.44 25.58c-3.77 2.42-4.82.63-4.82.63l-1.91-10.82a1.66 1.66 0 0 0 .41-1.61 2 2 0 0 0-.44-.67 4.15 4.15 0 0 0-.44-.38v-.24a3.2 3.2 0 0 0 .77-.2 1.82 1.82 0 0 0 .37-.18 1.74 1.74 0 0 0 .7-.91 2.83 2.83 0 0 0 1.69.75 3.33 3.33 0 0 0 .55 0z"/></g><path d="M336.51 120.62a19.06 19.06 0 0 1-3.71 2.48 6.36 6.36 0 0 1-3.27.79 2.81 2.81 0 0 1-2-1.16c-1.79-2.4-.26-5.54.81-7.2l.67.69.44-.31c-.92 1.37-2.47 4.2-1 6.15a1.69 1.69 0 0 0 1.26.7c2 .21 5.09-2.09 6.11-3a.56.56 0 0 1 .8 0 .58.58 0 0 1-.11.86z" class="X"/><path d="M394.62 109.44h0 0v.06.14l-.07.33-.15.73-.17.77-.17.78-.79 3.19-1.93 6.41-2.34 6.27-1.33 3.05-1.4 3-3.15 5.77-.84 1.4-.87 1.38-1.81 2.68c-1.22 1.77-2.57 3.43-3.91 5.09s-2.81 3.19-4.32 4.66l-1.19 1.1-1.17 1.06-.58.53-.15.13.07-.07.11-.08a2.61 2.61 0 0 1 .43-.31 7.11 7.11 0 0 1 2.11-1c.18 0 .33-.09.5-.12h.25.21.42.6.22.14.06 0c.16.06-.16 0-.65-.21a18.56 18.56 0 0 1-1.89-1l-2.3-1.52c-1.61-1.14-3.3-2.5-5-4l-5.07-4.63-5.05-5-5-5.23-2.45-2.66-2.36-2.58-18.22 13.67.6.92.58.85 1.15 1.67 2.35 3.27 4.95 6.38 5.31 6.21 2.84 3.05 3 3a84 84 0 0 0 6.71 5.86l4 2.83a40.86 40.86 0 0 0 4.8 2.7 29.28 29.28 0 0 0 6.56 2.24l.49.1.54.09 1.08.15c.38 0 .78.07 1.17.09h.6.63 1.28c.45 0 .91-.08 1.37-.13l.68-.1.72-.14 1.43-.34a19.65 19.65 0 0 0 5.55-2.59l1.19-.88.29-.24.26-.21.21-.19.84-.74 1.67-1.5 1.6-1.55 6.07-6.53 5.33-7.05 4.63-7.45 1-1.91 1-1.94 1-2 .92-2a106.87 106.87 0 0 0 5.78-16.18l1.9-8.37.68-4.3.13-1.1.13-1.13.11-1.15.11-1.39z" class="Y"/><g class="c"><path d="M337.41 140.48a1.55 1.55 0 0 0 1.69 1.43 1.57 1.57 0 1 0-1.69-1.43zm32.67 27.01a.68.68 0 0 0 .65-.51 50.38 50.38 0 0 0 1.09-11.64.67.67 0 0 0-1.34 0 50.13 50.13 0 0 1-1.06 11.27.68.68 0 0 0 .49.82z"/><path d="M374.37 162.62a.66.66 0 0 0 .3-.07.67.67 0 0 0 .3-.9 53.47 53.47 0 0 0-3.29-5.81.67.67 0 1 0-1.05.83 55.85 55.85 0 0 1 3.14 5.58.66.66 0 0 0 .6.37zm-41.79-9.1a.65.65 0 0 0 .48-.2c5.62-5.8 18.31-14.95 18.43-15a.66.66 0 0 0 .16-.93.68.68 0 0 0-.94-.16c-.13.1-12.91 9.32-18.61 15.21a.67.67 0 0 0 0 1 .69.69 0 0 0 .48.08z"/><path d="M338.01 148.57a.66.66 0 0 0 .43-.16.67.67 0 0 0 .08-.94l-6.78-8.14a.67.67 0 0 0-.95-.09.68.68 0 0 0-.08.95l6.78 8.14a.69.69 0 0 0 .52.24z"/></g><path d="M411.18 306.99l9.1-53.68.74-4.39-26.18-9.24-1.49-.53-6.17-2.2-1.27 6.24-.3 1.5c-2.45 12.7-7.06 38.87-8.31 62.3z" class="U"/><path d="M406.57 306.99l9.29-54.51a.71.71 0 0 0-1.4-.23l-9.33 54.74z" class="Z"/><path d="M464.18 219.81s2 18.7-2.28 29.11-59.32 5.05-73.35-4.32c-5.76-3.84 6.5-39.3 6.5-39.3z" class="U"/><g class="Z"><path d="M385.58 244.75a16.67 16.67 0 0 0 2.43-.63 16.33 16.33 0 0 0 3.62-1.75 19.44 19.44 0 0 0 3.24-2.64c6.07-6.13 7.86-15.38 7.94-15.84a.71.71 0 0 0-1.39-.26c0 .11-1.88 9.74-8 15.57a16.78 16.78 0 0 1-2.52 2 15.25 15.25 0 0 1-3.46 1.65 15.65 15.65 0 0 1-1.53.41c-.14.41-.24.91-.33 1.49zm33.97 5.17a.69.69 0 0 0 .67.72h0a.7.7 0 0 0 .74-.65l.44-7.79.09-1.38 1.79-22.85c0-.48.09-.94.13-1.39l.32-3.43-1.4-.23-.32 3.46c0 .44-.08.91-.13 1.39l-1.78 22.67-.09 1.41-.46 8.07z"/><path d="M417.54 240.91a19.55 19.55 0 0 0 2.47.94 11.77 11.77 0 0 0 1.39.35 10 10 0 0 0 1.34.18 4.86 4.86 0 0 0 2.37-.37 2.88 2.88 0 0 0 1.61-2.16c.51-2.64 1.59-13.52 2.32-21.22 0-.47.09-.94.13-1.38l.31-3.31-1.41-.17-.31 3.34c0 .44-.09.9-.13 1.38l-2.3 21.1a1.5 1.5 0 0 1-.85 1.19 4.92 4.92 0 0 1-3 0 12.34 12.34 0 0 1-1.39-.38 14.85 14.85 0 0 1-1.94-.76.73.73 0 0 0-1 .31.68.68 0 0 0 .39.96z"/></g><path d="M457.35 306.99l6.12-62c0-.49.09-1 .13-1.42l1-11.11c-3.37-1.4-9.5-.44-16 1.41-.47.14-1 .27-1.42.42a194.66 194.66 0 0 0-23.86 9.32v63.41z" class="U"/><g class="Z"><path d="M454.02 306.99l4.14-54.57a.7.7 0 0 0-.65-.76.72.72 0 0 0-.76.66c0 .42-2.27 32.54-4.15 54.67zm-10.76-83.15a37.16 37.16 0 0 0 3.92 10.41 22.84 22.84 0 0 0 7.27 8.07 16.58 16.58 0 0 0 9 2.64c0-.49.09-1 .13-1.42a15.19 15.19 0 0 1-8.39-2.41 21.09 21.09 0 0 1-6.62-7.29 36 36 0 0 1-3.93-10.25.711.711 0 1 0-1.4.25z"/></g><path d="M386.63 218.63c15.24 14.23 51.29 21.8 79.07 8.27 3.05-8.33 6.4-38.06 7.3-46.94.18-1.77.32-3.54.44-5.31a233.93 233.93 0 0 0 0-26.09c0-.49 0-1-.07-1.47l-1.42-23.19c-1-16.1-6.39-26-15.73-27.51a38.44 38.44 0 0 1-10.31-3.11l-.88-.44a28.92 28.92 0 0 1-4.72-2.92h-20.8a15.81 15.81 0 0 1-6.48 5.42l-.85.41c-7.39 3.2-16 2.56-17.79 11.48-1.12 5.6 3.17 17.11 2.72 40.46 0 1.72-.09 3.49-.18 5.33l-.33 5.36-.46 5.3-.54 4.91-.7 5.28c-1.36 9.67-5.08 32.28-8.27 44.76z" class="Y"/><g class="c"><path d="M458.02 223.5h-.17a.62.62 0 0 1-.43-.76c11.56-42.42 9.23-85.54 9.2-86a.64.64 0 0 1 .59-.66.62.62 0 0 1 .66.59c0 .43 2.37 43.75-9.25 86.36a.63.63 0 0 1-.6.47zm-62.77-55.1a.67.67 0 0 0 .66-.59c1.39-12.27 1.4-36.68 1.4-36.92a.67.67 0 0 0-1.34 0c0 .24 0 24.57-1.39 36.77a.67.67 0 0 0 .59.74zm28.53 46.21a1.57 1.57 0 1 0 1.43-1.7 1.58 1.58 0 0 0-1.43 1.7zm-.25 7.59a1.57 1.57 0 1 0 1.43-1.69 1.57 1.57 0 0 0-1.43 1.69zm-18.35-83.57c-4.09-4.75-2.55-15.32-2.49-15.77a.67.67 0 0 1 .67-.57h13.87a.67.67 0 0 1 .66.57c.07.45 1.6 11-2.49 15.77a6.87 6.87 0 0 1-10.22 0zm-1.23-15c-.26 2.24-.94 10.42 2.25 14.13a5.55 5.55 0 0 0 8.18 0c3.19-3.7 2.51-11.89 2.26-14.13z"/></g><path d="M442.18 38.57c-3.88-2.52-16.1-3.78-16.1-3.78s-2-5.28-4.28-6.79c-5.15-3.44-5.79 3.52-5.79 3.52s-5-7-9.56-5 1.26 8.55 1.26 8.55-6.8-1.26-6 4.53 7.29 8.31 7.29 8.31a12.68 12.68 0 0 0-1 8.55c1 5.29 3.27 5.54 3.27 5.54l28.18 2.52s5.79 0 7.3-7.3-3.52-10.32-3.52-10.32 3.27-5.57-1.05-8.33z" class="U"/><path d="M419.18 86.38v5.3a16.72 16.72 0 0 0 1.87 1.31c9.2 5.52 19.11-1.31 19.11-1.31V73.32l-18.48 11.5z" class="V"/><path d="M419.18 86.23v5.45a16.72 16.72 0 0 0 1.87 1.31c7.83-3.1 13.53-11.31 13.53-11.31l-12.9 3.14z" class="U"/><g class="Y"><path d="M440.18 86.3a10.46 10.46 0 0 1 7.88 8.11c-6 6.31-11.35 11.78-20 13.38V95.12a22.38 22.38 0 0 0 12.12-8.82zm-21.17 1.83s-5.53 1.18-7.68 8.25c5.57 6.78 8.55 9.33 16.71 11.41V95.12s-4.55-.07-9.03-6.99z"/></g><path d="M415.89 186.58l3.58 8.65h0l1.61 3.88 4.54 10.98 2.19-4.24.78-1.5 1.77-3.4.77-1.5 1.76-3.4.78-1.5 1.76-3.4h0l.78-1.5 1.65-3.19-.03-.35-.26-2.53-.59-5.75-.25-2.54-.59-5.74-.26-2.54-.58-5.74-.26-2.53-.59-5.75-.25-2.54-.59-5.74-.26-2.54-.58-5.74-.26-2.54-.58-5.74-.26-2.54-.59-5.75-.26-2.53-.6-5.94-4.39-.17-.13.99-.26 2.01-.61 4.56-.26 2.01-.6 4.56-.27 2.01-.6 4.56-.27 2.01-.6 4.56-.26 2.01-.6 4.56-.27 2.01-.6 4.56-.27 2.01-.6 4.56-.26 2.01-.61 4.56-.26 2.01-.6 4.56-.27 2.02-.6 4.55-.27 2.02-.6 4.55-.26 2.02-.01.08z" class="U"/><g class="Z"><path d="M425.44 114.22l5.64 5.64-.26-2.53-5.12-5.12-.26 2.01zm-.87 6.57l7.36 7.36-.26-2.54-6.84-6.83-.26 2.01zm-.87 6.57l9.07 9.07-.26-2.54-8.54-8.54-.27 2.01zm-.87 6.57l10.78 10.78-.26-2.54-10.25-10.25-.27 2.01zm-.86 6.57l12.48 12.49-.25-2.54-11.97-11.96-.26 2.01zm-.87 6.57l14.2 14.2-.26-2.53-13.67-13.68-.27 2.01zm-.87 6.57l15.91 15.91-.26-2.54-15.38-15.38-.27 2.01zm-.86 6.57l17.61 17.62-.25-2.54-17.1-17.09-.26 2.01z"/><path d="M418.5 166.78l19.33 19.33-.26-2.53-18.81-18.81-.26 2.01zm-.87 6.58l17.8 17.79.78-1.5-18.31-18.31-.27 2.02zm-.87 6.57l16.13 16.12.78-1.5-16.64-16.64-.27 2.02zm-.86 6.57l14.46 14.45.77-1.5-14.97-14.97-.26 2.02zm3.57 8.73l1.61 3.88 6.73 6.74.78-1.5-9.12-9.12zm10.75-83.84l-2.18 3.25-2.21-3.42-.38 2.92 2.55 2.6 2.45-3.09-.23-2.26z"/></g><path d="M433.89 105.94l-5.85 8.7-5.61-8.7 5.61-7.27 5.85 7.27z" class="U"/><g class="c"><path d="M437.3 111.89a.66.66 0 0 0 .42-.15c5.79-4.62 10.73-16.57 10.94-17.07a.68.68 0 0 0-.37-.88.67.67 0 0 0-.87.37c-.05.12-4.7 11.37-10 16.08l-8.81-12a.68.68 0 0 0-.55-.28.67.67 0 0 0-.54.29l-8.23 11.68c-1.26-2.27-4.56-8.29-7.33-13.88a.68.68 0 0 0-1.21.6c3.51 7 7.84 14.79 7.89 14.87a.66.66 0 0 0 .55.34.68.68 0 0 0 .58-.28l8.31-11.8 8.69 11.81a.67.67 0 0 0 .45.26z"/><path d="M428.06 99.34a.67.67 0 0 0 .67-.67v-3a.68.68 0 0 0-1.35 0v3a.67.67 0 0 0 .68.67z"/></g><path d="M412.58 62.92s-3-3.56-4.71 0-.39 10.74 4.19 9.56z" class="X"/><path d="M409.37 75.38s0 10.94 11.38 10.92 19-8.91 19.42-9.32h0l.12-2.3.64-11.94.35-6.39s1.46-11.5-9.46-13.6c-8-1.53-15.46-.2-19.24 4-.12.13-.24.27-.35.41a9.82 9.82 0 0 0-2.15 5.36l-.35 11.46-.09 2.81z" class="V"/><g class="U"><path d="M422.45 55.75s4.77 3.56 7.62 1.29-3.78-4.74-6-4.56-3.04 2.43-1.62 3.27zm-5.2 0s-4.78 3.56-7.62 1.29 3.78-4.74 6-4.56 3.04 2.43 1.62 3.27z"/></g><path d="M421.01 76.81a4.75 4.75 0 0 0 3.26-1c.21-.182.232-.5.05-.71s-.5-.232-.71-.05a3.5 3.5 0 0 1-3.5.54c-.254-.113-.552.001-.665.255s.001.552.255.665a4.34 4.34 0 0 0 1.31.3z" class="X"/><path d="M425.95 68.99s-6.95 1.4-10.46 1.08c0 0 1.31 5.17 6.48 3.87a5.19 5.19 0 0 0 3.98-4.95z" class="W"/><path d="M412.23 47.12c1.79-.63 3.08 0 5.86 1.18 4 1.77 8.52.18 12.5-1.85s6.36.79 5 2.65-1.2 3.36.3 5.72-2.84 3.47-.44 5.32a2.46 2.46 0 0 1 .54 3 1.64 1.64 0 0 0 1.84 2.17h0c1.3-.33 3.12-2.62 3.12-2.62l.35-6.39s1.44-11.45-9.48-13.55c-8-1.53-15.46-.2-19.24 4-.12.09-.24.23-.35.37z" class="U"/><g class="X"><path d="M424.58 65.35c0 .8 1.64 1.44 3.66 1.44s3.67-.64 3.67-1.44-1.64-1.44-3.67-1.44-3.66.64-3.66 1.44zm-14.94 1.4a8.38 8.38 0 0 0 .88 0c2 0 3.67-.64 3.67-1.44s-1.64-1.44-3.67-1.44h-.79z"/></g><g class="U"><path d="M422.99 60.96c0 1.1.5 2 1.11 2s1.11-.88 1.11-2-.5-2-1.11-2-1.11.91-1.11 2zm-11 0c0 1.1.5 2 1.11 2s1.11-.88 1.11-2-.5-2-1.11-2-1.11.91-1.11 2zm24.62 11.58c.05.12 1.49 3.46 3.56 4.44h0l.13-2.3a7.89 7.89 0 0 1-3.69-2.14z"/></g><path d="M438.61 64.93s4.38-5.88 7.59-1.26c2.64 3.81-2.36 13.73-7.59 10.33z" class="V"/><g class="U"><path d="M439.18 72.23a.45.45 0 0 0 .45-.4 7.51 7.51 0 0 1 4.37-6.06.46.46 0 0 0 .25-.59.45.45 0 0 0-.58-.25 8.42 8.42 0 0 0-4.94 6.8.47.47 0 0 0 .4.5z"/><path d="M443.41 69.5a.42.42 0 0 0 .35-.16.46.46 0 0 0-.06-.64c-.18-.14-1.8-1.41-3.15-1.07a.45.45 0 0 0-.32.55.44.44 0 0 0 .55.32c.77-.2 2 .59 2.35.9a.44.44 0 0 0 .28.1zm-23.97-3.03a.45.45 0 1 0 0-.9 3.09 3.09 0 0 1-2.69-1.25l3.6-7.47a.46.46 0 0 0-.21-.6.44.44 0 0 0-.6.21l-3.71 7.68a.45.45 0 0 0 0 .39 3.86 3.86 0 0 0 3.61 1.94z"/></g><path d="M528.39 107.06s6.06 6.12 12 3.74c4.83-1.93 5.9-8.65 6.14-11.17.05-.6.06-1 .06-1a7 7 0 0 0 .78-.52c1.07-.78 2.82-2.35 2.63-4.21-.27-2.64-5.07-1.17-5.07-1.17s.73-3.19-.69-4.12-4.25.71-4.25.71 1.55-3.91-.57-4.85c-3.19-1.42-4.24 3.38-4.38 3.7 0-.35 1.56-15.08-1-14.32-2.21.66-4.25 13-4.76 16.32l-.12.83h-.48c-1.42.05-5.59.42-6.36 3.33-.84 3.55 6.07 12.73 6.07 12.73z" class="V"/><g class="X"><path d="M540.79 96.65a5.31 5.31 0 0 0-.52 3.27 1.54 1.54 0 0 0 1 1.12 3 3 0 0 0 1.34 0 15.93 15.93 0 0 0 3.93-1.43l.07-1a7 7 0 0 0 .78-.52.54.54 0 0 0-.27.07c-1.62.89-4.56 2.19-5.55 1.87a.59.59 0 0 1-.38-.44c-.27-1 .46-3 1.5-4.24a.5.5 0 0 0-.67-.73c-1 .73-3.86 2.52-5.29 2.07-.21-.07-.24-.17-.25-.22a1.68 1.68 0 0 1 .21-1 12.53 12.53 0 0 1 1.76-2.6.5.5 0 0 0 .12-.28.49.49 0 0 0-.16-.42.51.51 0 0 0-.71 0 14.12 14.12 0 0 0-1.79 2.59 4.33 4.33 0 0 0-.42 1.24 1.63 1.63 0 0 0 0 .7 1.27 1.27 0 0 0 .9.89c1.33.5 3.08-.21 4.4-.94z"/><path d="M533.18 92.47a.49.49 0 0 1 .36.43 3.24 3.24 0 0 0 .43 1.54.56.56 0 0 0 .51.28 1.76 1.76 0 0 0 .82-.3 14.14 14.14 0 0 0 2.66-2.2.47.47 0 0 1-.12.27 12.33 12.33 0 0 0-1.76 2.61l-.29.18a3.77 3.77 0 0 1-.91.38 1.51 1.51 0 0 1-.35.06 1.54 1.54 0 0 1-1.36-.7 4.24 4.24 0 0 1-.63-2.05.48.48 0 0 1 .62-.5z"/><path d="M526.07 98.04a16.35 16.35 0 0 0 3.93-.11 5.54 5.54 0 0 0 2.74-1.1 2.49 2.49 0 0 0 .88-1.87c.06-2.64-2.64-4.11-4.26-4.75l-.12.83h-.48c1.36.51 3.91 1.76 3.87 3.89a1.52 1.52 0 0 1-.54 1.15c-1.33 1.17-4.72 1.1-5.91 1a.5.5 0 0 0-.55.44.5.5 0 0 0 .44.52zm10.67 9.49a.48.48 0 0 0 .38-.32.5.5 0 0 0-.29-.64 4.47 4.47 0 0 1-2.77-2.59c-1.17-3.08 1-7.34 1-7.38a.48.48 0 0 0-.21-.67.49.49 0 0 0-.67.21c-.1.19-2.42 4.71-1.09 8.19a5.39 5.39 0 0 0 3.35 3.17.48.48 0 0 0 .3.03z"/></g><path d="M462.96 99.91l10.37 9 5 4.61 5 4.55 5 4.46 5 4.26 4.82 3.85 2.11 1.48.4.26.17.1.06.05a.64.64 0 0 1 .12.14c.06.07.05.12.12.18a.86.86 0 0 0 .51.08 8 8 0 0 0 2.91-1.13 25.07 25.07 0 0 0 4-3 53 53 0 0 0 4.09-4.11 101.68 101.68 0 0 0 7.73-10 145.88 145.88 0 0 0 6.42-10.07 16.65 16.65 0 0 0 15.1 5.77 134.43 134.43 0 0 1-5.84 13.48 105 105 0 0 1-7.68 13.06 69.29 69.29 0 0 1-5 6.35 47 47 0 0 1-6.49 6.06 34.68 34.68 0 0 1-4.23 2.75 28.24 28.24 0 0 1-5.25 2.18 23.7 23.7 0 0 1-6.34 1 23.06 23.06 0 0 1-6.71-.85 24.64 24.64 0 0 1-3.1-1.1l-.72-.33-.61-.29-.57-.29-.54-.29-3.76-2.22-6.34-4.35s-3.92-2.94-5.81-4.42l-5.59-4.49-5.44-4.57-5.33-4.65-5.23-4.73-2.59-2.4-1.28-1.22-1.31-1.26z" class="Y"/><g class="c"><path d="M472.85 142.43a.62.62 0 0 1-.36-.12c-6.84-4.79-19-14.88-19.12-15a.62.62 0 0 1-.09-.88.63.63 0 0 1 .88-.08c.13.1 12.25 10.16 19 14.92a.64.64 0 0 1 .16.87.66.66 0 0 1-.47.29z"/><path d="M458.7 131.51h-.09l-4.82-.71a.61.61 0 0 1-.53-.7.63.63 0 0 1 .71-.53l4.82.7a.622.622 0 1 1-.09 1.24zm79.76-13.27a.62.62 0 0 0 .32-.7.64.64 0 0 0-.75-.49c-9.08 2-13.6-6.68-13.64-6.76a.64.64 0 0 0-.86-.28h0a.63.63 0 0 0-.28.85c0 .1 5 9.62 15 7.44a1 1 0 0 0 .21-.06z"/><path d="M533.79 118.41a.65.65 0 0 0 .29-.32l3-7a.64.64 0 1 0-1.17-.5l-3 7a.64.64 0 0 0 .88.82zm-5.35-6.66a1.1 1.1 0 1 0 .47-1.49 1.11 1.11 0 0 0-.47 1.49zm-28.8 28.94a.63.63 0 0 0 .33-.46 27.9 27.9 0 0 1 1.86-6.34.64.64 0 1 0-1.13-.58 27.54 27.54 0 0 0-2 6.71.63.63 0 0 0 .52.73.68.68 0 0 0 .42-.06z"/><path d="M503.77 139.26l.12-.08a.65.65 0 0 0 .08-.9 11.74 11.74 0 0 1-2.22-4.24c-.072-.342-.408-.562-.75-.49s-.562.408-.49.75a12.88 12.88 0 0 0 2.48 4.8.65.65 0 0 0 .78.16z"/></g></g><ellipse cx="144.84" cy="412.94" rx="144.84" ry="8.81" class="a"/><path d="M135.81 167.6l14.63 53.5-5.22-6a27.11 27.11 0 0 0 6.65 2.37 49.07 49.07 0 0 0 8 1c2.82.15 5.76.12 8.77 0l9.19-.62h0a8.36 8.36 0 0 1 2 16.59l-9.85 1.38s-6.79.68-10.36.76a65.5 65.5 0 0 1-11.06-.61 45.61 45.61 0 0 1-11.58-3.22 9.09 9.09 0 0 1-5-5.45l-.18-.56-17.62-52.59c-1.893-5.891 1.309-12.207 7.179-14.164s12.221 1.176 14.241 7.024c.09.18.16.4.21.59z" class="V"/><g class="c"><path d="M141.44 361.54a1.82 1.82 0 0 1-.65-.12l-76.61-27.67c-1.005-.362-1.527-1.47-1.165-2.475s1.47-1.527 2.475-1.165l76.61 27.64a1.93 1.93 0 0 1-.66 3.75z"/><path d="M61.61 361.54a1.93 1.93 0 0 1-.65-3.75l77.55-28.04a1.93 1.93 0 1 1 1.32 3.63l-77.56 28.09a1.92 1.92 0 0 1-.66.07z"/></g><g class="Y"><path d="M148.26 410.92a3.32 3.32 0 0 1-3.28-2.87l-13.8-103.36h-58l-13.6 103.36a3.31 3.31 0 0 1-6.56-.87l14-106.23a3.31 3.31 0 0 1 3.28-2.88h63.72a3.31 3.31 0 0 1 3.28 2.87l14.23 106.23a3.31 3.31 0 0 1-2.84 3.72 3.25 3.25 0 0 1-.43.03z"/><path d="M115.58 301.38h-41.4c-13.11 0-27.15-7.18-29.17-20.13a246.12 246.12 0 0 1-2.59-49.5 60.28 60.28 0 0 1 22.85-44.41h0s8.27 36-2.13 85.76c3.97 18.88 52.44 28.28 52.44 28.28z"/></g><path d="M106.95 90.07s-4.92-11.86-17.94-9.63c-9.11 1.56-13 12.91-12.45 30.42.78 25.49-7.84 40.85-7.84 40.85l11.44 2.6s29.13-43.7 26.79-64.24zm104.38 276.56h-18.49s-4.27-20.52-5.71-32-2.18-38.78-2.18-38.78-14.73 4.79-45.57 3c-68.33-4-42.42-54.19-42.42-54.19 2.31 3.19 16.45 1 26.11 2.5 29.67 2.85 55.4 14.49 70.84 21.15a77.48 77.48 0 0 1 9.92 5.09c3.72 2.29 6 9.25 7.45 18.41 4.22 27.47.05 74.82.05 74.82z" class="U"/><g class="Z"><path d="M195.18 356.75a.65.65 0 0 1-.65-.53c-2.67-13.2-3.56-29.63-4.28-42.83-.6-10.95-1.16-21.28-2.57-22.53-1.14-1-5.87-.22-11.85.78-11.91 2-29.91 5-49.76.34-10.81-2.51-18.75-7.76-23.62-15.61-8.39-13.52-4.56-30.28-4.52-30.45a.65.65 0 0 1 .79-.49.66.66 0 0 1 .5.79c0 .17-3.74 16.42 4.36 29.47 4.67 7.52 12.34 12.57 22.79 15 19.59 4.56 37.43 1.6 49.24-.36 7.07-1.17 11.34-1.88 13-.46s2.23 9.1 3 23.45c.72 13.16 1.61 29.53 4.26 42.64a.66.66 0 0 1-.52.78z"/><path d="M211.68 357.09h0l-20.56-.44a.67.67 0 0 1-.65-.68.65.65 0 0 1 .68-.64l20.56.44a.66.66 0 0 1 0 1.32z"/></g><path d="M210.82 390.31h-13.05l-2.52-15.3-1.37-8.38h16.21l.26 8.38.47 15.3z" class="V"/><path d="M210.82 390.31h-13.05l-1.87-11.39-.65-3.91h15.1l.12 4.05.35 11.25z" class="Y"/><path d="M210.47 379.06l-14.57-.14-.65-3.91h15.1l.12 4.05z" class="c"/><path d="M243.02 410.92h-49.35a6.77 6.77 0 0 1-.65-2.74c-.31-4.17 1-10.84 1.67-15a32.26 32.26 0 0 0 .2-1.36 14.8 14.8 0 0 0 .15-1.72c0-3.42 3-2.84 3-2.84 5 4.9 10.64-2.44 13.95 0l.43.33 1.29 1.05c.84.7 2 1.72 3.62 3.16 3.91 3.53 10.58 5.85 16.25 8.23.72.3 1.39.6 2 .9l1.34.68c4.63 2.51 6.11 4.9 6.45 6.64a3.84 3.84 0 0 1-.35 2.67z" class="e"/><g class="d"><path d="M236.98 401.54c-1.27 1-4.1 3-6.37 3h-.3c-1.6-.13-7.48-3-12.26-5.65-2.75-1.51-5.25-3-7.05-4.18-3-1.95-3.47-2.69-3.58-3.21-.44-1.95 2.78-3.31 5-4l1.29 1.05c-2.81.76-5.11 2-5 2.65.28.57 3.2 2.8 10.18 6.62 5.33 2.92 10.39 5.28 11.51 5.37 1.52.12 3.75-1.26 5.21-2.35zm6.04 9.38h-49.35a6.77 6.77 0 0 1-.65-2.74h50.41a3.84 3.84 0 0 1-.41 2.74z"/><path d="M198.7 410.92h-1.46a10.83 10.83 0 0 0 2.65-7.9 13.92 13.92 0 0 0-5.2-9.88l.2-1.36a15.15 15.15 0 0 1 6.18 11.18 12 12 0 0 1-2.37 7.96z"/></g><g class="W"><path d="M216.53 394.64a.81.81 0 0 1-.2-1.6l3.09-.77c.436-.108.877.159.985.595s-.159.877-.595.985l-3.08.77zm-3.06-2.56a.82.82 0 0 1-.2-1.61l3.08-.76c.436-.108.877.159.985.595s-.159.877-.595.985l-3.08.76a.63.63 0 0 1-.19.03z"/><use xlink:href="#B"/><path d="M222.69 398.16a.82.82 0 0 1-.19-1.61l3.08-.76c.436-.108.877.159.985.595s-.159.877-.595.985l-3.08.76a.64.64 0 0 1-.2.03zm3.37 1.59a.81.81 0 0 1-.2-1.6l3.08-.77c.436-.11.88.154.99.59s-.154.88-.59.99l-3.09.77zm3.64 1.36a.82.82 0 0 1-.79-.62.81.81 0 0 1 .6-1l3.08-.77c.436-.108.877.159.985.595s-.159.877-.595.985l-3.08.76a.69.69 0 0 1-.2.05z"/></g><path d="M62.74 228.75s-.59 4 4.76 5.1l55.68 1.81a6.29 6.29 0 0 0 3.09-6.55c0 0-23.52-13.21-63.53-.36z" class="d"/><path d="M123.94 247.11c-28.91 15.9-60.46 3.1-60.46 3.1A88.63 88.63 0 0 0 67 236.92c1-5 1.5-9.46 1.75-11.8 12.29-.67 42.42-1.95 54.23.85l.09 4.73z" class="V"/><path d="M102.59 239.49c-.22 1.49-.89 2.62-1.51 2.53s-.94-1.36-.72-2.85.88-2.63 1.5-2.54.94 1.37.73 2.86zm20.48-8.74c-12.3-.75-36.52-1-56.07 6.22 1-5 1.5-9.46 1.75-11.8 12.29-.67 42.42-1.95 54.23.85z" class="X"/><path d="M136.8 207.83a6.46 6.46 0 0 1-.41 1l-.18.35a27.51 27.51 0 0 1-5.95 7.13l-1.19 1-1.81 1.38a7.62 7.62 0 0 1-.63.43v.09c0 .21 0 .44-.06.68l-.18 3.23-.09 3.25v2.73c-16.34-7.3-50-2.7-63.52-.41l.68-3.44a106 106 0 0 0 1.71-14 147.8 147.8 0 0 0-1.53-25.15l-.27-1.87-.18-1.22c-.47-3-1-6.05-1.62-9-2.67-12.82-.79-26.27 12.2-27.86l2.77-.32c6.13-.65 11.17-.87 12.57-.93h.39l25.12 7.29 2.38.7 3.82 1.28 1.45.54c1.22.45 2.33.9 3.33 1.34a28.29 28.29 0 0 1 4.86 2.65c5.52 3.92 4.66 8.34 4.52 17.07v.11.34 1.22c0 1.12.05 2.25.12 3.37a85.48 85.48 0 0 0 .42 4.89l.22 1.92.23 1.78c.95 7.66 2.21 14.35.83 18.43z" class="e"/><g class="d"><path d="M134.94 175.9v.34 1.22l-5.29 3.29a.74.74 0 0 1-1-.23.74.74 0 0 1 .23-1l5.6-3.51a.78.78 0 0 1 .46-.11zm-34.76 28.28a.73.73 0 0 1-.55-.25.74.74 0 0 1 .05-1l4.91-4.42c.304-.276.774-.254 1.05.05s.254.774-.05 1.05l-4.91 4.42a.77.77 0 0 1-.5.15zm35.74-14.76l-3.37 3a.7.7 0 0 1-.49.19.75.75 0 0 1-.55-.24.73.73 0 0 1 .06-1l4.12-3.71.23 1.76zm-45.74-3.02a.71.71 0 0 1-.12-.59.74.74 0 0 1 .89-.54l6.43 1.48a.74.74 0 0 1 .55.89.75.75 0 0 1-.89.55l-6.43-1.44a.7.7 0 0 1-.43-.35zm-22.95 12.62a.74.74 0 0 1-.49-1.29l4.91-4.42a.74.74 0 0 1 1 .06.73.73 0 0 1-.06 1l-4.91 4.42a.7.7 0 0 1-.45.23zm57.16-1.05a.79.79 0 0 1 .41-.45.74.74 0 0 1 1 .39l2.64 6.05a.74.74 0 0 1-.38 1 .72.72 0 0 1-1-.38l-2.64-6.06a.72.72 0 0 1-.03-.55zm12.41 9.86a6.46 6.46 0 0 1-.41 1l-.18.35-3.59-1.13a.78.78 0 0 1-.44-.3.74.74 0 0 1 .86-1.08zm-20.28.53a.71.71 0 0 1 .57.19.72.72 0 0 1 .05 1l-4.44 4.89a.72.72 0 0 1-1 0 .74.74 0 0 1 0-1l4.44-4.89a.77.77 0 0 1 .38-.19zm-2.61-11.28a.74.74 0 0 1-.5-.33.75.75 0 0 1 .23-1l5.6-3.51a.74.74 0 1 1 .78 1.25l-5.59 3.51a.75.75 0 0 1-.52.08zm3.57-21.28a.77.77 0 0 1 .18.57.75.75 0 0 1-.81.66l-6.57-.72a.73.73 0 1 1 .16-1.47l6.57.72a.76.76 0 0 1 .47.24zm-9.55-14.25a.7.7 0 0 1 .36-.47.74.74 0 0 1 1 .3l3.13 5.82a.75.75 0 0 1-.3 1 .74.74 0 0 1-1-.3l-3.13-5.82a.71.71 0 0 1-.06-.53zm22.33 54.77l-1.19 1-.87-2.2a.72.72 0 0 1 0-.52.74.74 0 0 1 .42-.43.73.73 0 0 1 .95.41zm-60.4-11.2a.71.71 0 0 1-.05-.59.75.75 0 0 1 1-.45l6.21 2.24a.74.74 0 1 1-.5 1.39l-6.21-2.24a.69.69 0 0 1-.45-.35zm3.04 8.41a.74.74 0 0 1 .48 1.29l-4.94 4.37c-.304.276-.774.254-1.05-.05s-.254-.774.05-1.05l5-4.38a.76.76 0 0 1 .46-.18zm8.97 6.95a.79.79 0 0 1 .15.58.74.74 0 0 1-.85.6l-6.52-1.11a.73.73 0 0 1-.6-.85.74.74 0 0 1 .85-.6l6.52 1.11a.73.73 0 0 1 .45.27zm5.45-61.86a.7.7 0 0 1 .09-.59.74.74 0 0 1 1-.22l5.55 3.58a.74.74 0 0 1-.8 1.24l-5.55-3.58a.73.73 0 0 1-.29-.43z"/><path d="M125.18 162.84a.74.74 0 0 1 1 .9l-2.21 6.22a.74.74 0 0 1-1.39-.49l2.21-6.23a.79.79 0 0 1 .39-.4zm-2.95-8.09l-3.41 4.37c-.249.32-.71.379-1.03.13s-.379-.71-.13-1.03l3.12-4zm-33.37 60.41a.62.62 0 0 0 .46.4.51.51 0 0 0 .3 0 34.81 34.81 0 0 1 22.05 1.19 37.73 37.73 0 0 0 14.9 3.19c0-.24 0-.47.06-.68v-.09a7.62 7.62 0 0 0 .63-.43 35.69 35.69 0 0 1-15.08-3.15 35.32 35.32 0 0 0-22.88-1.19.61.61 0 0 0-.44.76zm25.71-62.95c-1.4 2.19-4.31 4.66-10.19 4.23-8.11-.59-13.45-8.33-15.31-11.51h.38z"/></g><path d="M105.95 166.57a4.33 4.33 0 0 0 .71.1 6.26 6.26 0 0 0 5.4-1.93c3.9-4.26 2.3-14 2.23-14.39a.61.61 0 0 0-.69-.49.6.6 0 0 0-.49.69c0 .1 1.57 9.55-1.93 13.38a5.08 5.08 0 0 1-4.42 1.55c-7.86-.64-16.67-20.6-16.75-20.8-.133-.307-.488-.448-.795-.315s-.448.488-.315.795c.36.83 8.72 19.72 17.05 21.41z" class="W"/><g class="V"><path d="M130.43 158.75a43.79 43.79 0 0 0 4.61 22.11l-.11-4.44v-.15-.45c.15-8.76 1-13.19-4.5-17.07zm-46.25 10.11c-2.88 11.12-13.42 20-20.62 17.26l-.27-1.87-.18-1.22c-.47-3-1-6.05-1.62-9-2.67-12.82-.79-26.27 12.2-27.86l2.77-.32c6.55 2.78 11.08 10.21 7.72 23.01z"/><path d="M85.7 160.38l16.89 61.74-6-6.94a30.39 30.39 0 0 0 7.67 2.74 55.76 55.76 0 0 0 9.22 1.18c3.26.17 6.65.14 10.12 0s7-.41 10.61-.71h0a9.65 9.65 0 0 1 2.34 19.15c-3.71.59-7.49 1.15-11.36 1.6s-7.84.78-11.95.88a77.87 77.87 0 0 1-12.78-.71 53.1 53.1 0 0 1-13.4-3.7 10.48 10.48 0 0 1-5.81-6.3l-.21-.64-20.26-60.73c-2.262-6.826 1.439-14.193 8.265-16.455s14.193 1.439 16.455 8.265c.07.16.14.42.2.63z"/></g><g class="X"><path d="M93.26 220.15a.49.49 0 0 1-.43-.26.49.49 0 0 1 .18-.68 21.14 21.14 0 0 1 7.71-2.47.5.5 0 0 1 .54.46.5.5 0 0 1-.46.54 20.41 20.41 0 0 0-7.29 2.34.47.47 0 0 1-.25.07z"/><path d="M99.4 217.92a.59.59 0 0 1-.26-.07 13 13 0 0 0-5.18-1.63.5.5 0 0 1-.46-.54.49.49 0 0 1 .53-.46 14 14 0 0 1 5.63 1.77.5.5 0 0 1-.26.93z"/></g><path d="M114.45 185.38c7.47 1.51 10.74-6.22 10.78-6.29a.61.61 0 0 0-.33-.79.6.6 0 0 0-.79.33c-.12.29-2.93 6.88-9.42 5.57-6.81-1.38-19.5-14.78-19.63-14.91a.6.6 0 0 0-.85 0 .61.61 0 0 0 0 .85c.5.54 13.07 13.78 20.24 15.24z" class="d"/><path d="M102.71 136.75s-12-2.26-15.38-14.36c-3.22-11.52-.74-17.5 2.61-23.72 2.52-4.69 10.52-11 21.73-8.75s19.79 8.11 21 17.42c2.38 17.41-11.67 38.67-29.96 29.41z" class="U"/><path d="M87.9 124.26a.64.64 0 0 1-.54-.32 27.13 27.13 0 0 1-1.07-21.39 19.53 19.53 0 0 1 11.63-12.28 21 21 0 0 1 7.85-1.45.63.63 0 0 1-.07 1.25h0a20 20 0 0 0-7.37 1.38 18.16 18.16 0 0 0-10.86 11.51 26.36 26.36 0 0 0 1 20.36.64.64 0 0 1-.24.86.68.68 0 0 1-.33.08z" class="Y"/><path d="M125.96 124.45s3.9-3.08 4.93 1-1.87 11.34-6.41 9.13z" class="X"/><path d="M122.18 131.95a6.24 6.24 0 0 0-4.09 4.49 5.88 5.88 0 0 0 11.015 3.806 5.88 5.88 0 0 0-1.925-7.496 5.73 5.73 0 0 0-2.16-.92h-.06a1 1 0 0 0 .17 1 4.78 4.78 0 0 1 1.72.85 5 5 0 0 1-4.678 8.723 5 5 0 0 1-3.182-5.723 4.83 4.83 0 0 1 3.65-3.78z" class="Y"/><path d="M114.18 141.94l-1.63 10.21s-7.65 7.81-21.62-6.2c3.75-2.79 5.18-9.26 4.74-13.45a20.25 20.25 0 0 1 2.8 2.2 12.57 12.57 0 0 0 1.17.82c3.65 2.51 9.31 5.78 14.54 6.42z" class="V"/><path d="M114.18 141.94l-.78 4.84c-4.19-1.87-11.59-5.86-14.93-12.08l1.17.82c3.65 2.51 9.31 5.78 14.54 6.42z" class="U"/><path d="M129.74 121.99l-.63 3.09-.63 3c-1.55 7.07-2.83 10.86-4.89 12.28-10.43 7.17-27.4-7.35-27.95-7.82h0v-2.47a64 64 0 0 1 3.16-18.78 14.43 14.43 0 0 1 12-12.18c6.46-1 11.32 2.77 14.36 4.43 4.58 2.49 6.38 9.44 4.58 18.45z" class="V"/><path d="M99.18 104.87s7.3-14 21.86-10.12 15.33 10.68 15.59 14.06-7.54-2.61-7.54-2.61-.27 6.77-2.87 4.68c-3.19-2.55-6.75-8.07-6.75-8.07s-8.67 8.53-16.92 6.23c-4.71-1.29-3.37-4.17-3.37-4.17z" class="U"/><path d="M117.03 135.75a4.89 4.89 0 0 1-3.25-1.38.52.52 0 0 1 .75-.72 3.59 3.59 0 0 0 3.55.88c.276-.091.574.059.665.335s-.059.574-.335.665a4.34 4.34 0 0 1-1.38.22z" class="X"/><path d="M112.68 127.26s7 2.08 10.66 2.08c0 0-1.82 5.2-7 3.38a5.35 5.35 0 0 1-3.66-5.46z" class="W"/><path d="M125.71 112.64s-1.83-.18-1.53 1.58 4.25.69 6.21 4.23c0 0 1.89-3.7-4.68-5.81zM117.6 111s1.76.54.8 2.05-4.19-1-7.37 1.48c0 0-.29-4.15 6.57-3.53z" class="U"/><path d="M114.44 123.67c-.17.84-2 1.17-4.15.74s-3.7-1.46-3.53-2.29 2-1.17 4.14-.74 3.71 1.46 3.54 2.29z" class="X"/><g class="W"><path d="M135.18 124.22l-5.67-1c0 .24-.09.47-.14.71v.11l5.71 1a.43.43 0 0 0 .49-.35.42.42 0 0 0-.39-.47zm-15.16-4.84a5.08 5.08 0 0 0-.05-.87 7.17 7.17 0 0 0-5.57-6.12h-.07a7.18 7.18 0 0 0-8 4 7.54 7.54 0 0 0-.3.79 8.94 8.94 0 0 0-.2.74 7.1 7.1 0 0 0 2.05 6.59 7 7 0 0 0 3.5 1.85 7.16 7.16 0 0 0 8.45-5.55h0a7.49 7.49 0 0 0 .19-1.43zm-8.41 6.15h-.11a6.31 6.31 0 0 1-4.79-7.42 7.11 7.11 0 0 1 .27-.93.14.14 0 0 0 0-.06 6.31 6.31 0 0 1 5.5-4 6.16 6.16 0 0 1 1.65.12 6.24 6.24 0 0 1 3.07 1.61 6.29 6.29 0 0 1-5.61 10.72z"/><path d="M132.73 116.46a7.33 7.33 0 0 0-1.34-.54 5.29 5.29 0 0 0-.54-.13 7.07 7.07 0 0 0-1-.14 8 8 0 0 0-1.2 0 7.16 7.16 0 0 0-5.46 3.59 5.82 5.82 0 0 0-.41.83v.05a6.55 6.55 0 0 0-.35 1.19 7.14 7.14 0 0 0 2.63 7.09 6.92 6.92 0 0 0 2.32 1.2l.4.1.2.05a7 7 0 0 0 2 .12h.32a7.88 7.88 0 0 0 .88-.12 7.24 7.24 0 0 0 1.53-.59 7.14 7.14 0 0 0 0-12.65zm2.84 7.6c0 .13-.06.27-.1.4a5.05 5.05 0 0 1-.18.55 6.42 6.42 0 0 1-3.93 3.76 5.86 5.86 0 0 1-.92.22h-.27a6.38 6.38 0 0 1-2-.08h-.19-.12a6.23 6.23 0 0 1-2.68-1.46l-.31-.3a6.27 6.27 0 0 1-1.63-5.64 5.48 5.48 0 0 1 .44-1.35 6.28 6.28 0 0 1 3.06-3.08 6.36 6.36 0 0 1 2.67-.6h.45a8 8 0 0 1 .82.11c.19 0 .39.09.57.15a5.7 5.7 0 0 1 .76.29l.57.29a6.31 6.31 0 0 1 2.99 6.74zm-38.22-6.38a.35.35 0 0 1-.14-.06.42.42 0 0 1-.13-.59c2.84-4.43 9.67-.45 9.73-.41.202.119.269.378.15.58s-.378.269-.58.15c-.06 0-6.19-3.61-8.59.14a.43.43 0 0 1-.44.19z"/><path d="M123.09 120.35a.45.45 0 0 1-.27-.19c-.9-1.4-2.85-.77-2.87-.76a.43.43 0 0 1-.26-.81 3.36 3.36 0 0 1 3.84 1.11.42.42 0 0 1-.12.59.45.45 0 0 1-.32.06z"/></g><path d="M129.11 125.08l-.63 3c-1.93-.46-3.32-1.42-3.16-2.2s1.86-1.13 3.79-.8z" opacity=".8" class="X"/><path d="M115.93 119.48c-.23 1.15-.94 2-1.58 1.84s-1-1.16-.74-2.31.94-2 1.58-1.84.99 1.16.74 2.31zm11.34 2.27c-.23 1.14-.94 2-1.58 1.84s-1-1.17-.74-2.31.94-2 1.58-1.84.97 1.19.74 2.31zm-5.86 3.11a4.35 4.35 0 0 0 1 .09.46.46 0 0 0 .34-.18.45.45 0 0 0 .11-.37l-.73-5.35c-.036-.276-.289-.471-.565-.435s-.471.289-.435.565l.65 4.77a3.83 3.83 0 0 1-1.84-.81c-.204-.171-.509-.144-.68.06s-.144.509.06.68a4.71 4.71 0 0 0 2.09.98zm-21.09 3.78c-.08.12-2.3 3.31-4.67 3.9h0v-2.47a9 9 0 0 0 4.67-1.43z" class="U"/><path d="M99.83 120.26s-3.34-7.08-7.67-2.93c-3.58 3.43-.45 14.88 5.75 12.43z" class="V"/><path d="M91.62 126.37a6.18 6.18 0 0 0-4.09 4.49 5.88 5.88 0 0 0 11.013 3.82 5.88 5.88 0 0 0-1.933-7.5 5.83 5.83 0 0 0-2.15-.91h-.06a1 1 0 0 0 .16 1 5 5 0 0 1-2.341 9.721 5 5 0 0 1-3.789-5.911 4.81 4.81 0 0 1 3.65-3.77z" class="Y"/><g class="U"><path d="M97.65 127.75h.06a.47.47 0 0 0 .52-.43 9 9 0 0 0-3.72-8.17.47.47 0 0 0-.67.14.48.48 0 0 0 .14.66h0a8 8 0 0 1 3.29 7.28.49.49 0 0 0 .38.52z"/><path d="M93.83 124.03a.51.51 0 0 0 .32-.05c.48-.25 1.89-.81 2.66-.44.24.116.529.015.645-.225s.015-.529-.225-.645c-1.35-.65-3.31.34-3.53.46a.49.49 0 0 0-.2.65.51.51 0 0 0 .33.25zm10.35-15.78s-4.49 12.19-4.73 14.64c-.34 3.35-4.76-8.12-.31-17.93zm75 258.44h-18.52s-4.28-20.52-5.71-32-2.18-38.79-2.18-38.79-14.74 4.79-45.57 3c-68.33-4-42.42-54.2-42.42-54.2 2.3 3.19 19.62 7.59 29.29 9.11 29.66 2.85 52.21 7.88 67.66 14.55a77.33 77.33 0 0 1 9.91 5.08c3.73 2.3 6.06 9.26 7.46 18.41 4.22 27.5.08 74.84.08 74.84z"/></g><g class="Z"><path d="M162.95 356.81a.65.65 0 0 1-.64-.53c-2.67-13.2-3.57-29.63-4.29-42.84-.59-10.94-1.16-21.28-2.56-22.52-1.14-1-5.87-.22-11.86.77-11.91 2-29.9 5-49.75.35-10.81-2.52-18.76-7.77-23.62-15.61-8.39-13.52-4.56-30.29-4.53-30.46a.68.68 0 0 1 .8-.49.65.65 0 0 1 .49.8c0 .16-3.73 16.41 4.37 29.46 4.67 7.53 12.34 12.58 22.79 15 19.59 4.56 37.43 1.59 49.24-.37 7.07-1.17 11.33-1.88 12.94-.45s2.23 9.09 3 23.44c.71 13.16 1.61 29.54 4.25 42.64a.66.66 0 0 1-.51.78z"/><path d="M179.5 357.15h0l-20.57-.4a.66.66 0 0 1-.572-.99.66.66 0 0 1 .572-.33l20.55.44a.66.66 0 0 1 0 1.32z"/></g><path d="M178.63 390.38h-13.04l-2.52-15.31-1.37-8.38h16.21l.25 8.38.47 15.31z" class="V"/><path d="M178.63 390.38h-13.04l-1.88-11.4-.64-3.91h15.09l.13 4.06.34 11.25z" class="Y"/><path d="M178.29 379.13l-14.58-.15-.64-3.91h15.09l.13 4.06z" class="c"/><path d="M210.84 410.99h-49.36a7 7 0 0 1-.64-2.74c-.31-4.18 1-10.84 1.67-15 .08-.49.15-.95.2-1.37a14.66 14.66 0 0 0 .15-1.71c0-3.43 3-2.84 3-2.84 5 4.9 10.65-2.45 13.95 0l.44.34c.28.21.7.55 1.28 1 .84.71 2 1.73 3.62 3.16 3.92 3.53 10.58 5.86 16.26 8.23q1.08.45 2 .9c.48.23.92.46 1.34.69 4.64 2.5 6.12 4.9 6.45 6.64a3.89 3.89 0 0 1-.36 2.7z" class="e"/><g class="d"><path d="M204.79 401.61c-1.27 1-4.09 3-6.36 3h-.25c-1.6-.13-7.48-3-12.27-5.65-2.74-1.51-5.24-3-7.05-4.18-2.95-1.95-3.46-2.69-3.58-3.21-.43-1.94 2.79-3.3 5-4 .28.21.7.55 1.28 1-2.8.77-5.11 2-5 2.65.28.58 3.2 2.8 10.18 6.63 5.33 2.91 10.38 5.27 11.5 5.36 1.52.13 3.76-1.26 5.21-2.35.48.29.92.52 1.34.75zm6.05 9.38h-49.36a7 7 0 0 1-.64-2.75h50.4a3.9 3.9 0 0 1-.4 2.75z"/><path d="M166.52 410.99h-1.47a10.83 10.83 0 0 0 2.66-7.91 13.93 13.93 0 0 0-5.2-9.87l.2-1.37a15.14 15.14 0 0 1 6.17 11.18 12 12 0 0 1-2.36 7.97z"/></g><g class="W"><path d="M184.35 394.75a.82.82 0 0 1-.2-1.61l3.08-.76c.282-.071.581.013.784.222s.279.51.2.79-.302.497-.584.568l-3.09.76a.63.63 0 0 1-.19.03zm-3.07-2.61a.83.83 0 0 1-.79-.62.81.81 0 0 1 .6-1l3.09-.77c.436-.108.877.159.985.595s-.159.877-.595.985l-3.08.76a.69.69 0 0 1-.21.05zm6.15 4.36a.81.81 0 0 1-.79-.62.8.8 0 0 1 .59-1l3.09-.77c.436-.108.877.159.985.595s-.159.877-.595.985l-3.08.76zm3.08 1.72a.82.82 0 0 1-.79-.62.81.81 0 0 1 .6-1l3.08-.77c.436-.108.877.159.985.595s-.159.877-.595.985l-3.08.77z"/><use xlink:href="#B" x="-25.74" y="3.38"/><path d="M197.52 401.17a.81.81 0 0 1-.2-1.6l3.09-.77c.436-.108.877.159.985.595s-.159.877-.595.985l-3.09.77z"/></g><path d="M247.25 243.94v4.09c0 2.36-1.43 4.27-3.19 4.27H22.6c-1.76 0-3.18-1.91-3.18-4.27v-4.09c0-2.36 1.42-4.27 3.18-4.27h221.46c1.76 0 3.19 1.91 3.19 4.27z" class="f"/><path d="M19.41 245.24h227.83v1.88H19.41zm221.18 17.6H32.42a1.69 1.69 0 0 1-1.69-1.69v-8.9h211.55v8.9a1.69 1.69 0 0 1-1.69 1.69zM45.07 315.08h186.17v7.26H45.07z" fill="#217c58"/><path d="M31.65 412.28l36.04-149.44H55.03L18.99 412.28h12.66zm212.76 0l-36.04-149.44h12.66l36.04 149.44h-12.66z" class="f"/><path d="M35.73 205.908l3.904-.598 4.514 29.466-3.904.598z" class="Y"/><path d="M39.64 205.31l-3.91.6.86-2.98.45-1.55.89 1.34 1.71 2.59z" class="V"/><path d="M39.907 233.235l3.904-.598.329 2.145-3.904.598z" class="U"/><path d="M44.18 236.52l-3.39.52a.27.27 0 0 1-.3-.22l-.22-1.45 3.91-.62.22 1.44a.26.26 0 0 1-.22.33z" class="b"/><path d="M37.93 202.72l-1.34.21.45-1.55.89 1.34z" class="U"/><path d="M39.689 231.695l3.904-.598.235 1.532-3.904.598zM36.93 207.21l3.34 21.82a.31.31 0 0 0 .35.26h0a.31.31 0 0 0 .25-.35l-3.34-21.82a.31.31 0 0 0-.35-.25h0a.3.3 0 0 0-.25.34zm1.53-.23l3.34 21.82a.31.31 0 0 0 .35.25h0a.31.31 0 0 0 .25-.34l-3.34-21.82a.31.31 0 0 0-.35-.26h0a.31.31 0 0 0-.25.35z" class="c"/><path d="M42.767 205.458l3.95-.013.099 29.81-3.95.013z" class="f"/><path d="M46.71 205.45l-3.96.01 1.3-2.82.67-1.47.68 1.46 1.31 2.82z" class="V"/><path d="M42.849 233.108l3.95-.013.007 2.17-3.95.013z" class="U"/><path d="M46.55 236.98h-3.43a.26.26 0 0 1-.26-.26v-1.46h4v1.49a.26.26 0 0 1-.31.23z" class="b"/><path d="M45.4 202.63l-1.35.01.67-1.47.68 1.46z" class="U"/><path d="M42.844 231.548l3.95-.013.005 1.55-3.95.013zm.896-24.618l.08 22.07a.29.29 0 0 0 .3.3h0a.3.3 0 0 0 .3-.3l-.07-22.08a.31.31 0 0 0-.3-.3h0a.31.31 0 0 0-.31.31zm1.55-.01l.07 22.07a.3.3 0 0 0 .31.3h0a.3.3 0 0 0 .3-.3l-.08-22.07a.29.29 0 0 0-.3-.3h0a.3.3 0 0 0-.3.3z" fill="#217c58"/><path d="M45.427 234.853l4.195-29.513 3.911.556-4.195 29.513z" class="e"/><path d="M53.53 205.87l-3.92-.56 1.69-2.61.87-1.35.46 1.54.9 2.98z" class="V"/><path d="M45.706 232.689l3.911.556-.305 2.148-3.911-.556z" class="U"/><path d="M48.84 237.05l-3.4-.48a.26.26 0 0 1-.22-.3l.21-1.45 3.91.56-.16 1.45a.26.26 0 0 1-.34.22z" class="b"/><path d="M52.63 202.89l-1.33-.19.87-1.35.46 1.54z" class="U"/><path d="M45.721 232.683l.218-1.535 3.911.556-.218 1.535zM50.38 206.9l-3.1 21.85a.3.3 0 0 0 .26.34h0a.31.31 0 0 0 .34-.26l3.1-21.85a.29.29 0 0 0-.25-.34h0a.31.31 0 0 0-.35.26zm1.54.22l-3.11 21.85a.31.31 0 0 0 .26.35h0a.31.31 0 0 0 .34-.26l3.1-21.86a.3.3 0 0 0-.25-.34h0a.3.3 0 0 0-.34.26z" class="d"/><path d="M54.81 217.24l-.2 1.6-.19 1.45-.29 2.2-.18 1.44-.29 2.22-.18 1.42-.29 2.24-.18 1.4-.29 2.26-.18 1.38-.3 2.28-.17 1.36-.15 1.18H36.38l-.15-1.18-.18-1.36-.29-2.28-.18-1.38-.29-2.26-.19-1.4-.28-2.24-.19-1.42-.29-2.22-.18-1.44-.28-2.2-.19-1.45-.21-1.6h21.33z" class="b"/><path d="M54.61 218.84l-.19 1.45H33.88l-.19-1.45h20.92zm-.48 3.65l-.18 1.44H34.34l-.18-1.44h19.97zm-.47 3.66l-.18 1.42H34.82l-.19-1.42h19.03zm-.47 3.66l-.18 1.4H35.29l-.19-1.4h18.09zm-.47 3.66l-.18 1.38H35.76l-.18-1.38h17.14zm-.48 3.66l-.17 1.36H36.23l-.18-1.36h16.19z" fill="#b11722"/><path d="M245.96 160.42l-13.26 56-.34 1.48-.9 3.77a3.61 3.61 0 0 1-3.52 2.79h-89.26a3.62 3.62 0 0 1-3.52-4.45l14.49-61.26a3.61 3.61 0 0 1 3.52-2.78h89.26a3.63 3.63 0 0 1 3.53 4.45z" class="U"/><path d="M232.7 216.45l-.35 1.48h-92.68v-1.48h93.03z" class="Z"/><path d="M174.65 169.83a9.07 9.07 0 0 1-8.53 7.2 5.81 5.81 0 0 1-5.85-7.2 9.07 9.07 0 0 1 8.53-7.19 5.8 5.8 0 0 1 5.85 7.19z" class="Y"/><path d="M166.53 168.46c-.15.79-.55 1.44-.89 1.44s-.51-.65-.36-1.44.55-1.44.89-1.44.51.64.36 1.44zm3.75 0c-.15.79-.55 1.44-.89 1.44s-.51-.65-.36-1.44.55-1.44.9-1.44.5.64.35 1.44zm-3.41 4.88a3.19 3.19 0 0 1-3.22-3.13.38.38 0 0 1 .3-.37.25.25 0 0 1 .33.24 2.66 2.66 0 0 0 2.71 2.63 4.27 4.27 0 0 0 3.69-2.63.37.37 0 0 1 .41-.24.26.26 0 0 1 .17.37s-1.3 3.13-4.39 3.13z" class="U"/><path d="M215.92 203.41c.07 3.72 6.38 8.38 6.38 8.38s7.32-4.66 8.21-8.38c1-4-3.64-5.27-7.06-2.23-2.74-3.04-7.62-1.8-7.53 2.23z" class="b"/><path d="M202.58 192.62a8 8 0 0 1-7.75 7 6.14 6.14 0 0 1-6.22-7 8 8 0 0 1 7.76-7 6.13 6.13 0 0 1 6.21 7zm-45.87-36.65l-15.43 68.52h-2.6a3.61 3.61 0 0 1-3.52-4.45l14.49-61.29a3.61 3.61 0 0 1 3.52-2.78z" class="Z"/><g class="W"><path d="M182.56 224.49l-2.71 15.23h8.94l2.71-15.23h-8.94z"/><path d="M166.47 237.1l1.83-2.58a3.47 3.47 0 0 1 2.84-1.46h24.52a3.48 3.48 0 0 1 3.09 1.87l1.23 2.36a1.66 1.66 0 0 1-1.47 2.43h-30.69a1.66 1.66 0 0 1-1.35-2.62z"/><path d="M115.38 239.75h73.66l.8-2.78a2.74 2.74 0 0 0-2.63-3.49h-68a2.74 2.74 0 0 0-2.63 2z"/></g><g class="b"><rect x="177.1" y="113.07" width="37.15" height="24.59" rx="2.29"/><path d="M210.02 133.98l-2.98 11.22-5.19-10.55 8.17-.67z"/></g><path d="M203.91 123.55c-.67 4.2-8.51 9.46-8.51 9.46s-7.55-5.27-8-9.47c-.47-4.56 4.93-6 8.31-2.52 3.6-3.43 8.92-2.03 8.2 2.53z" class="W"/><ellipse cx="618.53" cy="413.34" rx="55.48" ry="5.48" class="a"/><rect x="580.05" y="367.78" width="74.86" height="5.93" rx="2.41" class="U"/><rect x="581.28" y="302.09" width="72.55" height="12.53" rx="2.06" class="Z"/><path d="M599.5 248.75s-28.85-5.7-36.91-25.83 21.39-35.17 36.91-24.38c16.6 11.56 0 50.21 0 50.21z" class="f"/><g class="U"><path d="M616.66 301.68a.53.53 0 0 1-.52-.45c-2.76-18.7-13.91-45.6-22.77-64.87-9.6-20.9-18.67-37.58-18.76-37.75-.138-.254-.044-.572.21-.71s.572-.044.71.21c.09.17 9.17 16.88 18.79 37.81 8.89 19.34 20.07 46.34 22.85 65.16a.52.52 0 0 1-.44.59z"/><path d="M598.42 246.84a.52.52 0 0 1-.46-.27c-12.55-23.38-32.93-40.33-33.14-40.5a.53.53 0 0 1 .119-.953.53.53 0 0 1 .551.143c.2.17 20.74 17.25 33.38 40.81a.51.51 0 0 1-.21.71.53.53 0 0 1-.24.06z"/><path d="M598.99 248.52a.53.53 0 0 1-.4-.19 100.22 100.22 0 0 0-24.78-21.19 62.4 62.4 0 0 0-11.49-5.55.52.52 0 0 1-.34-.66.53.53 0 0 1 .65-.34 62.74 62.74 0 0 1 11.68 5.63 101.21 101.21 0 0 1 25.07 21.44.51.51 0 0 1-.06.73.46.46 0 0 1-.33.13zm-2.54-6.13a.54.54 0 0 1-.5-.35c-7-20.65-4.44-45.74-4.42-46a.52.52 0 1 1 1 .11c0 .25-2.59 25.12 4.37 45.54a.52.52 0 0 1-.33.66.45.45 0 0 1-.12.04z"/><path d="M598.18 246.48a.52.52 0 0 1-.52-.44 72.65 72.65 0 0 1 1.27-30.37 48.28 48.28 0 0 1 4.42-11.45.52.52 0 0 1 .901.02.52.52 0 0 1-.011.52 48.6 48.6 0 0 0-4.31 11.22 71.49 71.49 0 0 0-1.24 29.89.52.52 0 0 1-.43.6z"/></g><path d="M629.93 254.05s29.14-4 38.37-23.6-19.26-36.43-35.39-26.56c-17.26 10.56-2.98 50.16-2.98 50.16z" class="f"/><g class="U"><path d="M618.88 299.97h0a.53.53 0 0 1-.52-.53c.11-9.63 2.21-20.6 6.24-32.6a214.07 214.07 0 0 1 13.22-30.52 281.91 281.91 0 0 1 19.06-31.47c.168-.235.495-.288.73-.12s.288.495.12.73a278.22 278.22 0 0 0-19 31.35c-8.68 16.67-19.08 41.06-19.34 62.64a.52.52 0 0 1-.51.52z"/><path d="M631.18 252.17a.45.45 0 0 1-.27-.08.51.51 0 0 1-.17-.71c14-22.78 35.53-38.61 35.74-38.77a.52.52 0 1 1 .62.84c-.21.16-21.56 15.88-35.47 38.47a.53.53 0 0 1-.45.25z"/><path d="M630.49 253.81a.52.52 0 0 1-.37-.88 101.15 101.15 0 0 1 26.29-19.92 62.57 62.57 0 0 1 12-4.93.53.53 0 0 1 .26 1 61.4 61.4 0 0 0-11.8 4.86 99.89 99.89 0 0 0-26 19.69.55.55 0 0 1-.38.18zm2.9-5.97a.51.51 0 0 1-.2 0 .52.52 0 0 1-.28-.68c8.15-20 7.07-45 7.06-45.2a.52.52 0 0 1 .49-.55.53.53 0 0 1 .55.5c0 .25 1.11 25.45-7.14 45.65a.51.51 0 0 1-.48.28z"/><path d="M631.38 251.82h-.11a.52.52 0 0 1-.4-.62 71.66 71.66 0 0 0 .54-29.91 47.76 47.76 0 0 0-3.65-11.46.52.52 0 0 1 .23-.7.51.51 0 0 1 .7.22 48.31 48.31 0 0 1 3.73 11.69 72.71 72.71 0 0 1-.53 30.39.52.52 0 0 1-.51.39z"/></g><path d="M618.71 216.09s-24.69-16-24.71-37.66 32.91-24.81 43.32-9c11.14 16.87-18.61 46.66-18.61 46.66z" class="f"/><g class="U"><path d="M615.26 271.6h-.08a.53.53 0 0 1-.39-.63c4.36-18.39 4-47.5 2.88-68.69-1.18-23-3.43-41.82-3.45-42a.51.51 0 0 1 .45-.58.52.52 0 0 1 .58.45c0 .19 2.28 19.08 3.46 42.09 1.1 21.25 1.49 50.47-2.9 69a.52.52 0 0 1-.55.36z"/><path d="M618.62 213.92a.53.53 0 0 1-.52-.47c-3-26.36-15.65-49.66-15.78-49.89a.54.54 0 0 1 .21-.71.53.53 0 0 1 .71.21c.13.23 12.88 23.7 15.9 50.27a.52.52 0 0 1-.46.58z"/><path d="M618.53 215.68a.52.52 0 0 1-.49-.35 100 100 0 0 0-15.17-28.86 62 62 0 0 0-8.62-9.42.52.52 0 0 1 .66-.8 61.1 61.1 0 0 1 8.76 9.55 101.23 101.23 0 0 1 15.36 29.19.52.52 0 0 1-.33.66.51.51 0 0 1-.17.03zm-.09-6.63h0a.53.53 0 0 1-.5-.55c1.11-21.78 12.81-44.13 12.93-44.36a.521.521 0 1 1 .92.49c-.12.22-11.71 22.38-12.81 43.92a.52.52 0 0 1-.54.5z"/><path d="M618.57 213.5h-.11a.52.52 0 0 1-.4-.62A73.76 73.76 0 0 1 630.52 185a50.7 50.7 0 0 1 8.37-9.13.54.54 0 0 1 .74.09.54.54 0 0 1-.1.74 49.71 49.71 0 0 0-8.19 9 72.56 72.56 0 0 0-12.26 27.44.51.51 0 0 1-.51.36z"/></g><path d="M648.88 268.8l-.86 2.28-.54 1.45-1.57 4.14-.54 1.45-1.61 4.26-.54 1.44-6.88 18.27h-37.57l-6.88-18.27-.54-1.44-1.61-4.26-.54-1.45-1.57-4.14-.54-1.45-.86-2.28a2.4 2.4 0 0 1 2.24-3.24h58.17a2.4 2.4 0 0 1 2.24 3.24z" class="e"/><path d="M648.01 271.08l-.54 1.45h-59.84l-.54-1.45h60.92zm-2.1 5.59l-.55 1.45h-55.62l-.55-1.45h56.72zm-2.15 5.71l-.54 1.44h-51.34l-.54-1.44h52.42z" class="d"/><path d="M607.49 314.61l-2.09 6.72-29.01 93.5h-5.66l18.39-91.59 1.73-8.63h16.64zm57.06 100.22h-5.67l-29.87-96.27-1.22-3.95h16.62l.43 2.1h0l19.71 98.12z" class="U"/><rect x="580.05" y="354.89" width="74.86" height="5.93" rx="2.41" class="Z"/><ellipse cx="195.8" cy="47.56" rx="27.12" ry="26.78" class="a"/><ellipse cx="195.8" cy="44.08" rx="27.12" ry="26.78" class="e"/><ellipse cx="195.8" cy="44.08" rx="22.04" ry="21.77" class="W"/><path d="M217.85 44.08l-.07 1.72c-.916-11.471-10.492-20.314-22-20.314s-21.084 8.842-22 20.314a19.62 19.62 0 0 1-.07-1.72c0-12.175 9.87-22.045 22.045-22.045S217.8 31.905 217.8 44.08z" class="a"/><path d="M195.81 46.34a.58.58 0 0 1-.45-.22l-10.81-14.37a.54.54 0 0 1 .11-.76.55.55 0 0 1 .77.11l10.56 14 12-5.19a.53.53 0 0 1 .72.28.53.53 0 0 1-.28.71l-12.39 5.38a.57.57 0 0 1-.23.06z" class="U"/></svg>